<?xml version="1.0" encoding="utf-8"?>
<!-- Generator: Adobe Illustrator 21.1.0, SVG Export Plug-In . SVG Version: 6.00 Build 0)  -->
<svg version="1.1" id="Layer_1" xmlns="http://www.w3.org/2000/svg" xmlns:xlink="http://www.w3.org/1999/xlink" x="0px" y="0px"
	 viewBox="0 0 216.5 65.4" style="enable-background:new 0 0 216.5 65.4;" xml:space="preserve">
<style type="text/css">
	.st0{fill:#231F20;}
	.st1{fill:#404041;}
</style>
<g>
	<path class="st0" d="M70.9,14.3v9.1c-0.7,0.7-1,1-1.7,1.7h-7.7V0h7.7c0.7,0.7,1,1,1.7,1.7v9.2l-0.5,0.5l0,0l-0.9,0.9l-0.2,0.2h0
		C69.9,13.3,70.3,13.7,70.9,14.3z M64.3,13.8v0.5l3.9-3.8V2.3h-3.9V13.8z M68.1,13.8L68.1,13.8l-3.9,3.7v5.3h3.9v-7.7V13.8z"/>
	<path class="st0" d="M87.3,25.1h-2.8l-1.3-10.3l-3,3l-0.9,7.3h-2.8L80.1,0h3.6L87.3,25.1z M82.9,12l-1-8l-1.2,10.1L82.9,12z"/>
	<path class="st0" d="M95.9,2.4h-3L93.3,0h8.2l0.3,2.4h-3v22.8h-2.8V2.4z"/>
	<path class="st0" d="M118.2,0v25.1h-2.7V12.3v-1.7V8.4l-1.4,4.2l-1.4,4.2l-1.4-4.2l-1.4-4.2v16.7h-2.7V0h2.7l2.7,8.4l2.7-8.4H118.2
		z"/>
	<path class="st0" d="M134.6,25.1h-2.8l-1.3-10.3l-3,3l-0.9,7.3h-2.8L127.4,0h3.6L134.6,25.1z M130.2,12l-1-8L128,14.2L130.2,12z"/>
	<path class="st0" d="M149.7,0v25.1h0H147l-4-15v15h-2.7V0h2.7l4,15v-0.5v-1.4V0H149.7z"/>
</g>
<g>
	<path class="st1" d="M13.1,34.9v30.4H9.8V49.9v-2v-2.7l-1.6,5.1l-1.6,5.1l-1.6-5.1l-1.6-5.1v20.3H0V34.9h3.3l3.3,10.1l3.3-10.1
		H13.1z"/>
	<path class="st1" d="M31.2,63.3V37c0.8-0.8,1.3-1.3,2.1-2.1h7.4c0.8,0.8,1.3,1.3,2.1,2.1v26.3c-0.8,0.8-1.3,1.3-2.1,2.1h-7.4
		C32.5,64.6,32,64.1,31.2,63.3z M34.7,37.8v24.8h4.8V37.8H34.7z"/>
	<path class="st1" d="M72.4,35v30.4h0h-3.3l-4.9-18.2v18.2h-3.3V35h3.3l4.9,18.2v-0.5V51V35H72.4z"/>
	<path class="st1" d="M90.5,63.3v-5.2h3.4v4.5h4v-6L91.1,45c-0.6-1.1-0.6-2.2-0.6-2.2V37c0.8-0.8,1.3-1.3,2.1-2.1h5.4h1.2
		c0.8,0.8,1.3,1.3,2.1,2.1v5.2h-3.4v-4.5h-4v5.4l6.7,11.6c0.6,1.1,0.6,2.1,0.6,2.1v6.4c-0.8,0.8-1.3,1.3-2.1,2.1h-1.2h-5.4
		C91.7,64.5,91.3,64.1,90.5,63.3z"/>
	<path class="st1" d="M123,37.8h-3.6l0.4-2.9h9.9l0.4,2.9h-3.6v27.6H123V37.8z"/>
	<path class="st1" d="M148.2,34.9h9.1l0.4,2.8h-6.2v10.9h5.2v2.9h-5.2v11h6.2l-0.4,2.8h-9.1V34.9z"/>
	<path class="st1" d="M181.9,53.1l-2.6,2.6v9.6h-3.4V34.9h9.1c0.8,0.8,1.3,1.3,2.1,2.1v11.1c-0.8,0.8-1.3,1.3-2.1,2.1h0l-0.2,0.2
		l3,15h-3.5L181.9,53.1z M179.2,37.8v14l4.4-4.3v-9.7H179.2z"/>
	<path class="st1" d="M205.8,63.3v-5.2h3.4v4.5h4v-6L206.5,45c-0.6-1.1-0.6-2.2-0.6-2.2V37c0.8-0.8,1.3-1.3,2.1-2.1h5.4h1.2
		c0.8,0.8,1.3,1.3,2.1,2.1v5.2h-3.4v-4.5h-4v5.4l6.7,11.6c0.6,1.1,0.6,2.1,0.6,2.1v6.4c-0.8,0.8-1.3,1.3-2.1,2.1h-1.2h-5.4
		C207.1,64.5,206.6,64.1,205.8,63.3z"/>
</g>
</svg>
