<?xml version="1.0" encoding="utf-8"?>
<!-- Generator: Adobe Illustrator 17.1.0, SVG Export Plug-In . SVG Version: 6.00 Build 0)  -->
<!DOCTYPE svg PUBLIC "-//W3C//DTD SVG 1.1//EN" "http://www.w3.org/Graphics/SVG/1.1/DTD/svg11.dtd">
<svg version="1.1" id="Layer_1" xmlns="http://www.w3.org/2000/svg" xmlns:xlink="http://www.w3.org/1999/xlink" x="0px" y="0px"
	 width="31.69px" height="31.69px" viewBox="0 0 31.69 31.69" enable-background="new 0 0 31.69 31.69" xml:space="preserve">
<g>
	<path fill="#454A56" d="M15.845,31.69C7.108,31.69,0,24.582,0,15.845C0,7.108,7.108,0,15.845,0C24.582,0,31.69,7.108,31.69,15.845
		C31.69,24.582,24.582,31.69,15.845,31.69z M15.845,1.74C8.067,1.74,1.74,8.067,1.74,15.845s6.328,14.106,14.106,14.106
		s14.106-6.328,14.106-14.106S23.623,1.74,15.845,1.74z"/>
	<path fill="#454A56" d="M24.273,14.937H11.062l4.541-4.542c0.338-0.341,0.336-0.875-0.005-1.213
		c-0.341-0.338-0.892-0.328-1.23,0.013L7.75,15.869l6.669,6.62c0.17,0.168,0.391,0.253,0.613,0.253c0.224,0,0.447-0.085,0.617-0.257
		c0.338-0.341,0.336-0.795-0.005-1.133l-4.546-4.415h13.175c0.48,0,0.87-0.52,0.87-1C25.143,15.457,24.754,14.937,24.273,14.937z"/>
</g>
</svg>
