<?xml version="1.0" encoding="utf-8"?>
<!-- Generator: Adobe Illustrator 17.1.0, SVG Export Plug-In . SVG Version: 6.00 Build 0)  -->
<!DOCTYPE svg PUBLIC "-//W3C//DTD SVG 1.1//EN" "http://www.w3.org/Graphics/SVG/1.1/DTD/svg11.dtd">
<svg version="1.1" id="Layer_1" xmlns="http://www.w3.org/2000/svg" xmlns:xlink="http://www.w3.org/1999/xlink" x="0px" y="0px"
	 width="31.69px" height="31.69px" viewBox="0 0 31.69 31.69" enable-background="new 0 0 31.69 31.69" xml:space="preserve">
<g>
	<path fill="#FFFFFF" d="M0,15.845C0,7.108,7.108,0,15.845,0C24.582,0,31.69,7.108,31.69,15.845c0,8.737-7.108,15.845-15.845,15.845
		C7.108,31.69,0,24.582,0,15.845z M1.74,15.845c0,7.778,6.328,14.106,14.106,14.106s14.106-6.328,14.106-14.106
		S23.623,1.74,15.845,1.74S1.74,8.067,1.74,15.845z"/>
	<path fill="#FFFFFF" d="M7.417,14.937h13.211l-4.541-4.542c-0.338-0.341-0.336-0.875,0.005-1.213
		c0.341-0.338,0.892-0.328,1.23,0.013l6.618,6.673l-6.669,6.62c-0.17,0.168-0.391,0.253-0.613,0.253
		c-0.224,0-0.447-0.085-0.617-0.257c-0.338-0.341-0.336-0.795,0.005-1.133l4.546-4.415H7.417c-0.48,0-0.87-0.52-0.87-1
		C6.547,15.457,6.937,14.937,7.417,14.937z"/>
</g>
</svg>
