<?xml version="1.0" encoding="utf-8"?>
<!-- Generator: Adobe Illustrator 17.1.0, SVG Export Plug-In . SVG Version: 6.00 Build 0)  -->
<!DOCTYPE svg PUBLIC "-//W3C//DTD SVG 1.1//EN" "http://www.w3.org/Graphics/SVG/1.1/DTD/svg11.dtd">
<svg version="1.1" id="Layer_1" xmlns="http://www.w3.org/2000/svg" xmlns:xlink="http://www.w3.org/1999/xlink" x="0px" y="0px"
	 width="37.675px" height="37.675px" viewBox="0 0 37.675 37.675" enable-background="new 0 0 37.675 37.675" xml:space="preserve">
<g>
	<path fill="#B4B4B4" d="M18.837,37.675C8.45,37.675,0,29.224,0,18.837C0,8.45,8.45,0,18.837,0c10.387,0,18.838,8.45,18.838,18.837
		C37.675,29.224,29.224,37.675,18.837,37.675z M18.837,2.675c-8.912,0-16.163,7.25-16.163,16.163S9.925,35,18.837,35
		S35,27.75,35,18.837S27.75,2.675,18.837,2.675z"/>
	<g>
		<path fill="#FFFFFF" d="M28.613,13.485c-0.456,0.657-1.004,1.225-1.642,1.707c-0.136,0.102-0.113,0.056-0.109,0.228
			c0.01,0.387,0.003,0.774-0.031,1.16c-0.072,0.82-0.235,1.622-0.493,2.404c-0.517,1.575-1.336,2.97-2.489,4.163
			c-1.273,1.317-2.798,2.212-4.567,2.691c-0.532,0.144-1.072,0.242-1.619,0.302c-0.567,0.062-1.135,0.083-1.705,0.056
			c-1.844-0.086-3.551-0.617-5.115-1.6l0,0c-0.008-0.004-0.017-0.006-0.023-0.012c-0.01-0.009-0.018-0.027-0.001-0.03
			c0.045-0.006,0.091-0.004,0.132,0.021c0.303,0.019,0.605,0.039,0.909,0.028c1.564-0.055,2.976-0.543,4.233-1.477
			c0.029-0.021,0.056-0.044,0.083-0.066c-0.017-0.038-0.043-0.028-0.063-0.029c-0.341-0.022-0.677-0.075-0.999-0.19
			c-1.122-0.401-1.891-1.16-2.301-2.28c-0.006-0.017-0.012-0.035-0.018-0.055c0.035-0.027,0.072-0.013,0.106-0.007
			c0.24,0.042,0.482,0.056,0.725,0.045c0.261-0.012,0.519-0.045,0.792-0.123c-0.218-0.065-0.42-0.114-0.613-0.194
			c-0.194-0.08-0.381-0.173-0.56-0.283c-0.179-0.11-0.347-0.236-0.505-0.375c-0.158-0.139-0.302-0.291-0.434-0.455
			c-0.129-0.16-0.243-0.33-0.344-0.509c-0.103-0.183-0.19-0.374-0.258-0.572c-0.069-0.198-0.121-0.401-0.155-0.608
			c-0.034-0.207-0.053-0.416-0.048-0.622c0.035-0.029,0.056-0.001,0.078,0.01c0.295,0.153,0.605,0.266,0.93,0.335
			c0.178,0.038,0.357,0.067,0.54,0.073c0.022,0.001,0.044,0.003,0.078-0.012c-0.876-0.633-1.409-1.467-1.561-2.526
			c-0.119-0.829,0.036-1.612,0.45-2.341c0.054,0.012,0.071,0.054,0.097,0.086c0.554,0.661,1.179,1.246,1.877,1.753
			c1.181,0.857,2.483,1.443,3.909,1.755c0.479,0.105,0.963,0.172,1.451,0.213c0.078,0.007,0.157,0.014,0.233,0.005
			c0.015-0.034,0.003-0.06-0.003-0.087c-0.403-2.004,0.867-3.855,2.724-4.31c1.255-0.307,2.582,0.069,3.476,0.972
			c0.059,0.059,0.115,0.082,0.196,0.062c0.222-0.054,0.443-0.107,0.661-0.176c0.499-0.157,0.977-0.363,1.432-0.622
			c0.032-0.018,0.066-0.035,0.098-0.053c0.028,0.027,0.006,0.05-0.003,0.073c-0.27,0.763-0.744,1.37-1.409,1.829
			c-0.041,0.028-0.089,0.047-0.127,0.103c0.708-0.087,1.376-0.275,2.02-0.551C28.663,13.442,28.629,13.461,28.613,13.485z"/>
		<path fill="#B4B4B4" d="M28.613,13.485c-0.456,0.657-1.004,1.225-1.642,1.707c-0.136,0.102-0.113,0.056-0.109,0.228
			c0.01,0.387,0.003,0.774-0.031,1.16c-0.072,0.82-0.235,1.622-0.493,2.404c-0.517,1.575-1.336,2.97-2.489,4.163
			c-1.273,1.317-2.798,2.212-4.567,2.691c-0.532,0.144-1.072,0.242-1.619,0.302c-0.567,0.062-1.135,0.083-1.705,0.056
			c-1.844-0.086-3.551-0.617-5.115-1.6l0,0c0.029-0.043,0.068-0.033,0.107-0.02c0.303,0.019,0.605,0.039,0.909,0.028
			c1.564-0.055,2.976-0.543,4.233-1.477c0.029-0.021,0.056-0.044,0.083-0.066c-0.017-0.038-0.043-0.028-0.063-0.029
			c-0.341-0.022-0.677-0.075-0.999-0.19c-1.122-0.401-1.891-1.16-2.301-2.28c-0.006-0.017-0.012-0.035-0.018-0.055
			c0.035-0.027,0.072-0.013,0.106-0.007c0.24,0.042,0.482,0.056,0.725,0.045c0.261-0.012,0.519-0.045,0.792-0.123
			c-0.218-0.065-0.42-0.114-0.613-0.194c-0.194-0.08-0.381-0.173-0.56-0.283c-0.179-0.11-0.347-0.236-0.505-0.375
			c-0.158-0.139-0.302-0.291-0.434-0.455c-0.129-0.16-0.243-0.33-0.344-0.509c-0.103-0.183-0.19-0.374-0.258-0.572
			c-0.069-0.198-0.121-0.401-0.155-0.608c-0.034-0.207-0.053-0.416-0.048-0.622c0.035-0.029,0.056-0.001,0.078,0.01
			c0.295,0.153,0.605,0.266,0.93,0.335c0.178,0.038,0.357,0.067,0.54,0.073c0.022,0.001,0.044,0.003,0.078-0.012
			c-0.876-0.633-1.409-1.467-1.561-2.526c-0.119-0.829,0.036-1.612,0.45-2.341c0.054,0.012,0.071,0.054,0.097,0.086
			c0.554,0.661,1.179,1.246,1.877,1.753c1.181,0.857,2.483,1.443,3.909,1.755c0.479,0.105,0.963,0.172,1.451,0.213
			c0.078,0.007,0.157,0.014,0.233,0.005c0.015-0.034,0.003-0.06-0.003-0.087c-0.403-2.004,0.867-3.855,2.724-4.31
			c1.255-0.307,2.582,0.069,3.476,0.972c0.059,0.059,0.115,0.082,0.196,0.062c0.222-0.054,0.443-0.107,0.661-0.176
			c0.499-0.157,0.977-0.363,1.432-0.622c0.032-0.018,0.066-0.035,0.098-0.053c0.028,0.027,0.006,0.05-0.003,0.073
			c-0.27,0.763-0.744,1.37-1.409,1.829c-0.041,0.028-0.089,0.047-0.127,0.103c0.708-0.087,1.376-0.275,2.02-0.551
			C28.663,13.442,28.629,13.461,28.613,13.485z"/>
		<path fill="#FFFFFF" d="M10.951,24.577c-0.036,0.007-0.071,0.014-0.107,0.02l0,0c-0.008-0.004-0.017-0.006-0.023-0.012
			c-0.01-0.009-0.018-0.027-0.001-0.03C10.864,24.549,10.91,24.551,10.951,24.577z"/>
	</g>
</g>
</svg>
