<?xml version="1.0" encoding="utf-8"?>
<!-- Generator: Adobe Illustrator 17.1.0, SVG Export Plug-In . SVG Version: 6.00 Build 0)  -->
<!DOCTYPE svg PUBLIC "-//W3C//DTD SVG 1.1//EN" "http://www.w3.org/Graphics/SVG/1.1/DTD/svg11.dtd">
<svg version="1.1" id="Layer_1" xmlns="http://www.w3.org/2000/svg" xmlns:xlink="http://www.w3.org/1999/xlink" x="0px" y="0px"
	 width="37.7px" height="37.7px" viewBox="0 0 37.7 37.7" enable-background="new 0 0 37.7 37.7" xml:space="preserve">
<g>
	<path fill="#B4B4B4" d="M18.8,36.8c-9.9,0-18-8.1-18-18s8.1-18,18-18s18,8.1,18,18S28.8,36.8,18.8,36.8z M18.8,3.4
		c-8.5,0-15.4,6.9-15.4,15.4s6.9,15.4,15.4,15.4s15.4-6.9,15.4-15.4S27.4,3.4,18.8,3.4z"/>
	<g>
		<path fill="#FFFFFF" d="M28.2,13.7c-0.4,0.6-1,1.2-1.6,1.6c-0.1,0.1-0.1,0.1-0.1,0.2c0,0.4,0,0.7,0,1.1c-0.1,0.8-0.2,1.5-0.5,2.3
			c-0.5,1.5-1.3,2.8-2.4,4c-1.2,1.3-2.7,2.1-4.4,2.6c-0.5,0.1-1,0.2-1.5,0.3c-0.5,0.1-1.1,0.1-1.6,0.1c-1.8-0.1-3.4-0.6-4.9-1.5l0,0
			c0,0,0,0,0,0c0,0,0,0,0,0c0,0,0.1,0,0.1,0c0.3,0,0.6,0,0.9,0c1.5-0.1,2.8-0.5,4-1.4c0,0,0.1,0,0.1-0.1c0,0,0,0-0.1,0
			c-0.3,0-0.6-0.1-1-0.2c-1.1-0.4-1.8-1.1-2.2-2.2c0,0,0,0,0-0.1c0,0,0.1,0,0.1,0c0.2,0,0.5,0.1,0.7,0c0.2,0,0.5,0,0.8-0.1
			c-0.2-0.1-0.4-0.1-0.6-0.2c-0.2-0.1-0.4-0.2-0.5-0.3c-0.2-0.1-0.3-0.2-0.5-0.4s-0.3-0.3-0.4-0.4c-0.1-0.2-0.2-0.3-0.3-0.5
			c-0.1-0.2-0.2-0.4-0.2-0.5c-0.1-0.2-0.1-0.4-0.1-0.6c0-0.2-0.1-0.4,0-0.6c0,0,0.1,0,0.1,0c0.3,0.1,0.6,0.3,0.9,0.3
			c0.2,0,0.3,0.1,0.5,0.1c0,0,0,0,0.1,0c-0.8-0.6-1.3-1.4-1.5-2.4c-0.1-0.8,0-1.5,0.4-2.2c0.1,0,0.1,0.1,0.1,0.1
			c0.5,0.6,1.1,1.2,1.8,1.7c1.1,0.8,2.4,1.4,3.7,1.7c0.5,0.1,0.9,0.2,1.4,0.2c0.1,0,0.2,0,0.2,0c0,0,0-0.1,0-0.1
			c-0.4-1.9,0.8-3.7,2.6-4.1c1.2-0.3,2.5,0.1,3.3,0.9c0.1,0.1,0.1,0.1,0.2,0.1c0.2-0.1,0.4-0.1,0.6-0.2c0.5-0.2,0.9-0.3,1.4-0.6
			c0,0,0.1,0,0.1-0.1c0,0,0,0,0,0.1c-0.3,0.7-0.7,1.3-1.3,1.7c0,0-0.1,0-0.1,0.1C27,14.1,27.6,13.9,28.2,13.7
			C28.2,13.7,28.2,13.7,28.2,13.7z"/>
		<path fill="#B4B4B4" d="M28.2,13.7c-0.4,0.6-1,1.2-1.6,1.6c-0.1,0.1-0.1,0.1-0.1,0.2c0,0.4,0,0.7,0,1.1c-0.1,0.8-0.2,1.5-0.5,2.3
			c-0.5,1.5-1.3,2.8-2.4,4c-1.2,1.3-2.7,2.1-4.4,2.6c-0.5,0.1-1,0.2-1.5,0.3c-0.5,0.1-1.1,0.1-1.6,0.1c-1.8-0.1-3.4-0.6-4.9-1.5l0,0
			c0,0,0.1,0,0.1,0c0.3,0,0.6,0,0.9,0c1.5-0.1,2.8-0.5,4-1.4c0,0,0.1,0,0.1-0.1c0,0,0,0-0.1,0c-0.3,0-0.6-0.1-1-0.2
			c-1.1-0.4-1.8-1.1-2.2-2.2c0,0,0,0,0-0.1c0,0,0.1,0,0.1,0c0.2,0,0.5,0.1,0.7,0c0.2,0,0.5,0,0.8-0.1c-0.2-0.1-0.4-0.1-0.6-0.2
			c-0.2-0.1-0.4-0.2-0.5-0.3c-0.2-0.1-0.3-0.2-0.5-0.4c-0.2-0.1-0.3-0.3-0.4-0.4c-0.1-0.2-0.2-0.3-0.3-0.5c-0.1-0.2-0.2-0.4-0.2-0.5
			c-0.1-0.2-0.1-0.4-0.1-0.6c0-0.2-0.1-0.4,0-0.6c0,0,0.1,0,0.1,0c0.3,0.1,0.6,0.3,0.9,0.3c0.2,0,0.3,0.1,0.5,0.1c0,0,0,0,0.1,0
			c-0.8-0.6-1.3-1.4-1.5-2.4c-0.1-0.8,0-1.5,0.4-2.2c0.1,0,0.1,0.1,0.1,0.1c0.5,0.6,1.1,1.2,1.8,1.7c1.1,0.8,2.4,1.4,3.7,1.7
			c0.5,0.1,0.9,0.2,1.4,0.2c0.1,0,0.2,0,0.2,0c0,0,0-0.1,0-0.1c-0.4-1.9,0.8-3.7,2.6-4.1c1.2-0.3,2.5,0.1,3.3,0.9
			c0.1,0.1,0.1,0.1,0.2,0.1c0.2-0.1,0.4-0.1,0.6-0.2c0.5-0.2,0.9-0.3,1.4-0.6c0,0,0.1,0,0.1-0.1c0,0,0,0,0,0.1
			c-0.3,0.7-0.7,1.3-1.3,1.7c0,0-0.1,0-0.1,0.1C27,14.1,27.6,13.9,28.2,13.7C28.2,13.7,28.2,13.7,28.2,13.7z"/>
		<path fill="#FFFFFF" d="M11.3,24.3c0,0-0.1,0-0.1,0l0,0c0,0,0,0,0,0c0,0,0,0,0,0C11.2,24.3,11.3,24.3,11.3,24.3z"/>
	</g>
</g>
</svg>
