<?xml version="1.0" encoding="utf-8"?>
<!-- Generator: Adobe Illustrator 17.1.0, SVG Export Plug-In . SVG Version: 6.00 Build 0)  -->
<!DOCTYPE svg PUBLIC "-//W3C//DTD SVG 1.1//EN" "http://www.w3.org/Graphics/SVG/1.1/DTD/svg11.dtd">
<svg version="1.1" id="Layer_1" xmlns="http://www.w3.org/2000/svg" xmlns:xlink="http://www.w3.org/1999/xlink" x="0px" y="0px"
	 width="37.7px" height="37.7px" viewBox="0 0 37.7 37.7" enable-background="new 0 0 37.7 37.7" xml:space="preserve">
<g>
	<path fill="#92C73F" d="M18.8,37.7C8.4,37.7,0,29.2,0,18.8S8.4,0,18.8,0s18.8,8.4,18.8,18.8S29.2,37.7,18.8,37.7z M18.8,2.7
		C9.9,2.7,2.7,9.9,2.7,18.8S9.9,35,18.8,35S35,27.8,35,18.8S27.8,2.7,18.8,2.7z"/>
</g>
<g>
	<path fill="#92C73F" d="M17.3,18.2c0-0.1,0.1-0.1,0.1-0.2c1.2-0.7,1.4-2.3,1-3.4c-0.5-1.3-1.5-1.9-2.9-2c-0.9-0.1-1.7-0.1-2.6-0.1
		c-1.3,0-2.6,0-4,0v12.2c2.4,0,4.7,0.1,7.1,0c1,0,1.7-0.6,2.3-1.5C19.5,21.4,19.2,19.6,17.3,18.2z M11.5,14.6
		c1.3,0.1,2.6,0.1,3.9,0.3c0.3,0,0.6,0.6,0.7,1c0.1,0.5-0.2,1-0.7,1.2c-0.5,0.1-1,0.2-1.4,0.2c-0.8,0-1.6,0-2.5,0V14.6z M15.8,22.3
		c-0.3,0.2-0.6,0.3-0.9,0.3c-1.1,0-2.2,0-3.4,0v-3.2c1.3,0.1,2.7,0.1,4,0.2c0.3,0,0.7,0.6,0.9,0.9C16.5,21.2,16.4,21.9,15.8,22.3z"
		/>
	<path fill="#92C73F" d="M27.3,22.2c-0.5,0-1-0.1-1.5,0.4c-0.7,0.7-1.5,0.7-2.4,0.4c-0.8-0.3-1.2-1-1.3-2h6.5
		c0.5-2.9-1.1-5.6-4.5-5.5c-2.3,0.1-3.9,1.4-4.2,3.7c-0.1,0.8-0.1,1.7,0,2.5c0.1,1.3,0.9,2.3,2.1,2.9c1.5,0.7,3.1,0.8,4.6,0.1
		c1-0.5,1.7-1.3,2.1-2.5C28.1,22.2,27.7,22.2,27.3,22.2z M24.5,17.6c1,0.1,1.5,0.7,1.7,1.7h-4C22.7,17.8,23.2,17.4,24.5,17.6z"/>
	<rect x="21.5" y="13.3" fill="#92C73F" width="5.2" height="1.2"/>
</g>
</svg>
