<?xml version="1.0" encoding="utf-8"?>
<!-- Generator: Adobe Illustrator 17.1.0, SVG Export Plug-In . SVG Version: 6.00 Build 0)  -->
<!DOCTYPE svg PUBLIC "-//W3C//DTD SVG 1.1//EN" "http://www.w3.org/Graphics/SVG/1.1/DTD/svg11.dtd">
<svg version="1.1" id="Layer_1" xmlns="http://www.w3.org/2000/svg" xmlns:xlink="http://www.w3.org/1999/xlink" x="0px" y="0px"
	 width="37.7px" height="37.7px" viewBox="0 0 37.7 37.7" enable-background="new 0 0 37.7 37.7" xml:space="preserve">
<g>
	<path fill="#B4B4B4" d="M18.8,36.9c-10,0-18-8.1-18-18.1s8-18,18-18s18,8,18,18S28.8,36.9,18.8,36.9z M18.8,3.4
		c-8.5,0-15.4,6.9-15.4,15.4s6.9,15.5,15.4,15.5s15.5-6.9,15.5-15.5S27.4,3.4,18.8,3.4z"/>
</g>
<g>
	<path fill="#B4B4B4" d="M17.4,18.2c0-0.1,0.1-0.1,0.1-0.2c1.1-0.7,1.3-2.2,1-3.3c-0.5-1.2-1.4-1.8-2.8-1.9
		c-0.9-0.1-1.6-0.1-2.5-0.1c-1.2,0-2.5,0-3.8,0v11.7c2.3,0,4.5,0.1,6.8,0c1,0,1.6-0.6,2.2-1.4C19.5,21.3,19.2,19.6,17.4,18.2z
		 M11.8,14.8c1.2,0.1,2.5,0.1,3.7,0.3c0.3,0,0.6,0.6,0.7,1c0.1,0.5-0.2,1-0.7,1.1c-0.5,0.1-1,0.2-1.3,0.2c-0.8,0-1.5,0-2.4,0
		C11.8,17.4,11.8,14.8,11.8,14.8z M15.9,22.2c-0.3,0.2-0.6,0.3-0.9,0.3c-1.1,0-2.1,0-3.3,0v-3.1c1.2,0.1,2.6,0.1,3.8,0.2
		c0.3,0,0.7,0.6,0.9,0.9C16.6,21.1,16.5,21.8,15.9,22.2z"/>
	<path fill="#B4B4B4" d="M26.9,22.1c-0.5,0-1-0.1-1.4,0.4c-0.7,0.7-1.4,0.7-2.3,0.4c-0.8-0.3-1.1-1-1.2-1.9h6.2
		c0.5-2.8-1.1-5.4-4.3-5.3c-2.2,0.1-3.7,1.3-4,3.5c-0.1,0.8-0.1,1.6,0,2.4c0.1,1.2,0.9,2.2,2,2.8c1.4,0.7,3,0.8,4.4,0.1
		c1-0.5,1.6-1.2,2-2.4C27.7,22.1,27.3,22.1,26.9,22.1z M24.3,17.7c1,0.1,1.4,0.7,1.6,1.6h-3.8C22.5,17.8,23,17.5,24.3,17.7z"/>
	<rect x="21.4" y="13.5" fill="#B4B4B4" width="5" height="1.1"/>
</g>
</svg>
