<?xml version="1.0" encoding="utf-8"?>
<!-- Generator: Adobe Illustrator 17.1.0, SVG Export Plug-In . SVG Version: 6.00 Build 0)  -->
<!DOCTYPE svg PUBLIC "-//W3C//DTD SVG 1.1//EN" "http://www.w3.org/Graphics/SVG/1.1/DTD/svg11.dtd">
<svg version="1.1" id="Layer_1" xmlns="http://www.w3.org/2000/svg" xmlns:xlink="http://www.w3.org/1999/xlink" x="0px" y="0px"
	 width="90.3px" height="146px" viewBox="0 0 90.3 146" enable-background="new 0 0 90.3 146" xml:space="preserve">
<g>
	<polygon fill="none" stroke="#FFFFFF" stroke-width="0.4988" stroke-miterlimit="10" points="75.9,113.2 74.7,141.1 14.8,141.1 
		13.6,113.2 	"/>
	<polygon fill="none" stroke="#FFFFFF" stroke-width="0.4988" stroke-miterlimit="10" points="79.8,26.8 78.5,56.6 11.1,56.6 
		9.8,26.8 	"/>
	<path fill="none" stroke="#FFFFFF" stroke-width="0.4988" stroke-miterlimit="10" d="M68.6,56.6H21c5.9-6.4,14.4-10.3,23.8-10.3
		S62.6,50.2,68.6,56.6z"/>
	<polygon fill="none" stroke="#FFFFFF" stroke-width="0.4988" stroke-miterlimit="10" points="80.5,56.6 78,113.2 11.6,113.2 
		9.1,56.6 	"/>
	<polygon fill="none" stroke="#FFFFFF" stroke-width="0.4988" stroke-miterlimit="10" points="84.1,15.6 5.4,15.6 3.7,26.8 
		85.8,26.8 	"/>
	<polygon fill="none" stroke="#FFFFFF" stroke-width="0.4988" stroke-miterlimit="10" points="77.9,4.3 11.6,4.3 9.8,15.6 
		79.8,15.6 	"/>
	<line fill="none" stroke="#FFFFFF" stroke-width="0.4988" stroke-miterlimit="10" x1="4.7" y1="20.1" x2="84.8" y2="20.1"/>
	<line fill="none" stroke="#FFFFFF" stroke-width="0.4988" stroke-miterlimit="10" x1="4.5" y1="21.7" x2="85.1" y2="21.7"/>
</g>
</svg>
