<?xml version="1.0" encoding="utf-8"?>
<!-- Generator: Adobe Illustrator 17.1.0, SVG Export Plug-In . SVG Version: 6.00 Build 0)  -->
<!DOCTYPE svg PUBLIC "-//W3C//DTD SVG 1.1//EN" "http://www.w3.org/Graphics/SVG/1.1/DTD/svg11.dtd">
<svg version="1.1" id="Layer_1" xmlns="http://www.w3.org/2000/svg" xmlns:xlink="http://www.w3.org/1999/xlink" x="0px" y="0px"
	 viewBox="0 0 612 792" enable-background="new 0 0 612 792" xml:space="preserve">
<g>
	<polygon fill="none" stroke="#FFFFFF" stroke-miterlimit="10" points="411.6,501.4 407.8,587.2 223.8,587.2 220,501.4 	"/>
	<polygon fill="none" stroke="#FFFFFF" stroke-miterlimit="10" points="423.4,235.8 419.4,327.3 212.3,327.3 208.2,235.8 	"/>
	<path fill="none" stroke="#FFFFFF" stroke-miterlimit="10" d="M388.9,327.3H242.8c18.2-19.5,44.2-31.8,73.1-31.8
		S370.7,307.7,388.9,327.3z"/>
	<polygon fill="none" stroke="#FFFFFF" stroke-miterlimit="10" points="425.6,327.3 417.9,501.4 213.8,501.4 206.1,327.3 	"/>
	<polygon fill="none" stroke="#FFFFFF" stroke-miterlimit="10" points="436.8,201.3 194.9,201.3 189.7,235.8 442,235.8 	"/>
	<polygon fill="none" stroke="#FFFFFF" stroke-miterlimit="10" points="417.7,166.7 213.9,166.7 208.2,201.3 423.4,201.3 	"/>
	<line fill="none" stroke="#FFFFFF" stroke-miterlimit="10" x1="192.8" y1="215.3" x2="438.7" y2="215.3"/>
	<line fill="none" stroke="#FFFFFF" stroke-miterlimit="10" x1="192.1" y1="220.1" x2="439.7" y2="220.1"/>
</g>
</svg>
