<?xml version="1.0" encoding="utf-8"?>
<!-- Generator: Adobe Illustrator 17.1.0, SVG Export Plug-In . SVG Version: 6.00 Build 0)  -->
<!DOCTYPE svg PUBLIC "-//W3C//DTD SVG 1.1//EN" "http://www.w3.org/Graphics/SVG/1.1/DTD/svg11.dtd">
<svg version="1.1" id="Layer_1" xmlns="http://www.w3.org/2000/svg" xmlns:xlink="http://www.w3.org/1999/xlink" x="0px" y="0px"
	 width="367px" height="132.5px" viewBox="0 0 367 132.5" enable-background="new 0 0 367 132.5" xml:space="preserve">
<g>
	<rect x="7.4" y="22.4" fill="none" stroke="#FFFFFF" stroke-width="0.5" stroke-miterlimit="10" width="353.7" height="93.7"/>
	<g>
		<rect x="29" y="35.4" fill="none" stroke="#FFFFFF" stroke-width="0.5" stroke-miterlimit="10" width="12.1" height="12.1"/>
		<rect x="44.6" y="35.4" fill="none" stroke="#FFFFFF" stroke-width="0.5" stroke-miterlimit="10" width="12.1" height="12.1"/>
		<rect x="60.2" y="35.4" fill="none" stroke="#FFFFFF" stroke-width="0.5" stroke-miterlimit="10" width="12.1" height="12.1"/>
		<rect x="75.8" y="35.4" fill="none" stroke="#FFFFFF" stroke-width="0.5" stroke-miterlimit="10" width="12.1" height="12.1"/>
		<rect x="91.4" y="35.4" fill="none" stroke="#FFFFFF" stroke-width="0.5" stroke-miterlimit="10" width="12.1" height="12.1"/>
		<rect x="106.9" y="35.4" fill="none" stroke="#FFFFFF" stroke-width="0.5" stroke-miterlimit="10" width="12.1" height="12.1"/>
		<rect x="122.5" y="35.4" fill="none" stroke="#FFFFFF" stroke-width="0.5" stroke-miterlimit="10" width="12.1" height="12.1"/>
		<rect x="138.1" y="35.4" fill="none" stroke="#FFFFFF" stroke-width="0.5" stroke-miterlimit="10" width="12.1" height="12.1"/>
		<rect x="153.7" y="35.4" fill="none" stroke="#FFFFFF" stroke-width="0.5" stroke-miterlimit="10" width="12.1" height="12.1"/>
		<rect x="169.3" y="35.4" fill="none" stroke="#FFFFFF" stroke-width="0.5" stroke-miterlimit="10" width="12.1" height="12.1"/>
		<rect x="184.9" y="35.4" fill="none" stroke="#FFFFFF" stroke-width="0.5" stroke-miterlimit="10" width="12.1" height="12.1"/>
		<rect x="200.5" y="35.4" fill="none" stroke="#FFFFFF" stroke-width="0.5" stroke-miterlimit="10" width="12.1" height="12.1"/>
		<rect x="13.4" y="35.4" fill="none" stroke="#FFFFFF" stroke-width="0.5" stroke-miterlimit="10" width="12.1" height="12.1"/>
	</g>
	<g>
		<rect x="51.7" y="51.5" fill="none" stroke="#FFFFFF" stroke-width="0.5" stroke-miterlimit="10" width="12.1" height="12.1"/>
		<rect x="67.3" y="51.5" fill="none" stroke="#FFFFFF" stroke-width="0.5" stroke-miterlimit="10" width="12.1" height="12.1"/>
		<rect x="82.9" y="51.5" fill="none" stroke="#FFFFFF" stroke-width="0.5" stroke-miterlimit="10" width="12.1" height="12.1"/>
		<rect x="98.5" y="51.5" fill="none" stroke="#FFFFFF" stroke-width="0.5" stroke-miterlimit="10" width="12.1" height="12.1"/>
		<rect x="114.1" y="51.5" fill="none" stroke="#FFFFFF" stroke-width="0.5" stroke-miterlimit="10" width="12.1" height="12.1"/>
		<rect x="129.7" y="51.5" fill="none" stroke="#FFFFFF" stroke-width="0.5" stroke-miterlimit="10" width="12.1" height="12.1"/>
		<rect x="145.3" y="51.5" fill="none" stroke="#FFFFFF" stroke-width="0.5" stroke-miterlimit="10" width="12.1" height="12.1"/>
		<rect x="160.8" y="51.5" fill="none" stroke="#FFFFFF" stroke-width="0.5" stroke-miterlimit="10" width="12.1" height="12.1"/>
		<rect x="176.4" y="51.5" fill="none" stroke="#FFFFFF" stroke-width="0.5" stroke-miterlimit="10" width="12.1" height="12.1"/>
		<rect x="192" y="51.5" fill="none" stroke="#FFFFFF" stroke-width="0.5" stroke-miterlimit="10" width="12.1" height="12.1"/>
		<rect x="207.6" y="51.5" fill="none" stroke="#FFFFFF" stroke-width="0.5" stroke-miterlimit="10" width="12.1" height="12.1"/>
		<rect x="223.2" y="51.5" fill="none" stroke="#FFFFFF" stroke-width="0.5" stroke-miterlimit="10" width="12.1" height="12.1"/>
		<rect x="36.1" y="51.5" fill="none" stroke="#FFFFFF" stroke-width="0.5" stroke-miterlimit="10" width="12.1" height="12.1"/>
	</g>
	<rect x="54.1" y="67.6" fill="none" stroke="#FFFFFF" stroke-width="0.5" stroke-miterlimit="10" width="12.1" height="12.1"/>
	<rect x="69.7" y="67.6" fill="none" stroke="#FFFFFF" stroke-width="0.5" stroke-miterlimit="10" width="12.1" height="12.1"/>
	<rect x="85.3" y="67.6" fill="none" stroke="#FFFFFF" stroke-width="0.5" stroke-miterlimit="10" width="12.1" height="12.1"/>
	<rect x="100.9" y="67.6" fill="none" stroke="#FFFFFF" stroke-width="0.5" stroke-miterlimit="10" width="12.1" height="12.1"/>
	<rect x="116.5" y="67.6" fill="none" stroke="#FFFFFF" stroke-width="0.5" stroke-miterlimit="10" width="12.1" height="12.1"/>
	<rect x="132.1" y="67.6" fill="none" stroke="#FFFFFF" stroke-width="0.5" stroke-miterlimit="10" width="12.1" height="12.1"/>
	<rect x="147.7" y="67.6" fill="none" stroke="#FFFFFF" stroke-width="0.5" stroke-miterlimit="10" width="12.1" height="12.1"/>
	<rect x="163.3" y="67.6" fill="none" stroke="#FFFFFF" stroke-width="0.5" stroke-miterlimit="10" width="12.1" height="12.1"/>
	<rect x="178.9" y="67.6" fill="none" stroke="#FFFFFF" stroke-width="0.5" stroke-miterlimit="10" width="12.1" height="12.1"/>
	<rect x="194.4" y="67.6" fill="none" stroke="#FFFFFF" stroke-width="0.5" stroke-miterlimit="10" width="12.1" height="12.1"/>
	<rect x="244.9" y="99.7" fill="none" stroke="#FFFFFF" stroke-width="0.5" stroke-miterlimit="10" width="12.1" height="12.1"/>
	<rect x="244.9" y="35.9" fill="none" stroke="#FFFFFF" stroke-width="0.5" stroke-miterlimit="10" width="12.1" height="12.1"/>
	<rect x="244.9" y="26.6" fill="none" stroke="#FFFFFF" stroke-width="0.5" stroke-miterlimit="10" width="12.1" height="6"/>
	<rect x="260" y="26.6" fill="none" stroke="#FFFFFF" stroke-width="0.5" stroke-miterlimit="10" width="12.1" height="6"/>
	<rect x="275.1" y="26.6" fill="none" stroke="#FFFFFF" stroke-width="0.5" stroke-miterlimit="10" width="12.1" height="6"/>
	<rect x="296.9" y="26.6" fill="none" stroke="#FFFFFF" stroke-width="0.5" stroke-miterlimit="10" width="12.1" height="6"/>
	<rect x="312.1" y="26.6" fill="none" stroke="#FFFFFF" stroke-width="0.5" stroke-miterlimit="10" width="12.1" height="6"/>
	<rect x="327.2" y="26.6" fill="none" stroke="#FFFFFF" stroke-width="0.5" stroke-miterlimit="10" width="12.1" height="6"/>
	<rect x="342.6" y="26.6" fill="none" stroke="#FFFFFF" stroke-width="0.5" stroke-miterlimit="10" width="12.1" height="6"/>
	<rect x="260" y="35.9" fill="none" stroke="#FFFFFF" stroke-width="0.5" stroke-miterlimit="10" width="12.1" height="12.1"/>
	<rect x="275.1" y="35.9" fill="none" stroke="#FFFFFF" stroke-width="0.5" stroke-miterlimit="10" width="12.1" height="12.1"/>
	<rect x="244.9" y="51.5" fill="none" stroke="#FFFFFF" stroke-width="0.5" stroke-miterlimit="10" width="12.1" height="12.1"/>
	<rect x="260" y="51.5" fill="none" stroke="#FFFFFF" stroke-width="0.5" stroke-miterlimit="10" width="12.1" height="12.1"/>
	<rect x="275.1" y="51.5" fill="none" stroke="#FFFFFF" stroke-width="0.5" stroke-miterlimit="10" width="12.1" height="12.1"/>
	<rect x="296.9" y="35.9" fill="none" stroke="#FFFFFF" stroke-width="0.5" stroke-miterlimit="10" width="12.1" height="12.1"/>
	<rect x="312.1" y="35.9" fill="none" stroke="#FFFFFF" stroke-width="0.5" stroke-miterlimit="10" width="12.1" height="12.1"/>
	<rect x="327.2" y="35.9" fill="none" stroke="#FFFFFF" stroke-width="0.5" stroke-miterlimit="10" width="12.1" height="12.1"/>
	<rect x="296.9" y="51.5" fill="none" stroke="#FFFFFF" stroke-width="0.5" stroke-miterlimit="10" width="12.1" height="12.1"/>
	<rect x="312.1" y="51.5" fill="none" stroke="#FFFFFF" stroke-width="0.5" stroke-miterlimit="10" width="12.1" height="12.1"/>
	<rect x="327.2" y="51.5" fill="none" stroke="#FFFFFF" stroke-width="0.5" stroke-miterlimit="10" width="12.1" height="12.1"/>
	<rect x="296.9" y="67.6" fill="none" stroke="#FFFFFF" stroke-width="0.5" stroke-miterlimit="10" width="12.1" height="12.1"/>
	<rect x="312.1" y="67.6" fill="none" stroke="#FFFFFF" stroke-width="0.5" stroke-miterlimit="10" width="12.1" height="12.1"/>
	<rect x="327.2" y="67.6" fill="none" stroke="#FFFFFF" stroke-width="0.5" stroke-miterlimit="10" width="12.1" height="12.1"/>
	<rect x="296.9" y="83.3" fill="none" stroke="#FFFFFF" stroke-width="0.5" stroke-miterlimit="10" width="12.1" height="12.1"/>
	<rect x="312.1" y="83.3" fill="none" stroke="#FFFFFF" stroke-width="0.5" stroke-miterlimit="10" width="12.1" height="12.1"/>
	<rect x="327.2" y="83.3" fill="none" stroke="#FFFFFF" stroke-width="0.5" stroke-miterlimit="10" width="12.1" height="12.1"/>
	<rect x="342.6" y="35.9" fill="none" stroke="#FFFFFF" stroke-width="0.5" stroke-miterlimit="10" width="12.1" height="12.1"/>
	<rect x="342.6" y="51.5" fill="none" stroke="#FFFFFF" stroke-width="0.5" stroke-miterlimit="10" width="12.1" height="12.1"/>
	<rect x="342.6" y="67.6" fill="none" stroke="#FFFFFF" stroke-width="0.5" stroke-miterlimit="10" width="12.1" height="12.1"/>
	<rect x="342.6" y="83.3" fill="none" stroke="#FFFFFF" stroke-width="0.5" stroke-miterlimit="10" width="12.1" height="28.5"/>
	<rect x="327.2" y="99.7" fill="none" stroke="#FFFFFF" stroke-width="0.5" stroke-miterlimit="10" width="12.1" height="12.1"/>
	<rect x="296.9" y="99.7" fill="none" stroke="#FFFFFF" stroke-width="0.5" stroke-miterlimit="10" width="27.2" height="12.1"/>
	<rect x="260" y="99.7" fill="none" stroke="#FFFFFF" stroke-width="0.5" stroke-miterlimit="10" width="12.1" height="12.1"/>
	<rect x="260" y="84.8" fill="none" stroke="#FFFFFF" stroke-width="0.5" stroke-miterlimit="10" width="12.1" height="12.1"/>
	<rect x="275.1" y="99.7" fill="none" stroke="#FFFFFF" stroke-width="0.5" stroke-miterlimit="10" width="12.1" height="12.1"/>
	<rect x="210" y="67.6" fill="none" stroke="#FFFFFF" stroke-width="0.5" stroke-miterlimit="10" width="25.2" height="12.1"/>
	<rect x="38.5" y="67.6" fill="none" stroke="#FFFFFF" stroke-width="0.5" stroke-miterlimit="10" width="12.1" height="12.1"/>
	<rect x="13.4" y="51.5" fill="none" stroke="#FFFFFF" stroke-width="0.5" stroke-miterlimit="10" width="19.2" height="12.1"/>
	<rect x="13.4" y="99.7" fill="none" stroke="#FFFFFF" stroke-width="0.5" stroke-miterlimit="10" width="19.2" height="12.1"/>
	<rect x="52.4" y="99.7" fill="none" stroke="#FFFFFF" stroke-width="0.5" stroke-miterlimit="10" width="19.2" height="12.1"/>
	<rect x="176.4" y="99.7" fill="none" stroke="#FFFFFF" stroke-width="0.5" stroke-miterlimit="10" width="19.2" height="12.1"/>
	<rect x="74.7" y="99.7" fill="none" stroke="#FFFFFF" stroke-width="0.5" stroke-miterlimit="10" width="98.2" height="12.1"/>
	<rect x="216.1" y="99.7" fill="none" stroke="#FFFFFF" stroke-width="0.5" stroke-miterlimit="10" width="19.2" height="12.1"/>
	<rect x="13.4" y="67.6" fill="none" stroke="#FFFFFF" stroke-width="0.5" stroke-miterlimit="10" width="21.6" height="12.1"/>
	<rect x="60.2" y="83.7" fill="none" stroke="#FFFFFF" stroke-width="0.5" stroke-miterlimit="10" width="12.1" height="12.1"/>
	<rect x="75.8" y="83.7" fill="none" stroke="#FFFFFF" stroke-width="0.5" stroke-miterlimit="10" width="12.1" height="12.1"/>
	<rect x="91.4" y="83.7" fill="none" stroke="#FFFFFF" stroke-width="0.5" stroke-miterlimit="10" width="12.1" height="12.1"/>
	<rect x="106.9" y="83.7" fill="none" stroke="#FFFFFF" stroke-width="0.5" stroke-miterlimit="10" width="12.1" height="12.1"/>
	<rect x="122.5" y="83.7" fill="none" stroke="#FFFFFF" stroke-width="0.5" stroke-miterlimit="10" width="12.1" height="12.1"/>
	<rect x="138.1" y="83.7" fill="none" stroke="#FFFFFF" stroke-width="0.5" stroke-miterlimit="10" width="12.1" height="12.1"/>
	<rect x="153.7" y="83.7" fill="none" stroke="#FFFFFF" stroke-width="0.5" stroke-miterlimit="10" width="12.1" height="12.1"/>
	<rect x="169.3" y="83.7" fill="none" stroke="#FFFFFF" stroke-width="0.5" stroke-miterlimit="10" width="12.1" height="12.1"/>
	<rect x="184.9" y="83.7" fill="none" stroke="#FFFFFF" stroke-width="0.5" stroke-miterlimit="10" width="12.1" height="12.1"/>
	<rect x="200.5" y="83.7" fill="none" stroke="#FFFFFF" stroke-width="0.5" stroke-miterlimit="10" width="34.8" height="12.1"/>
	<rect x="13.4" y="83.7" fill="none" stroke="#FFFFFF" stroke-width="0.5" stroke-miterlimit="10" width="27.7" height="12.1"/>
	<rect x="44.6" y="83.7" fill="none" stroke="#FFFFFF" stroke-width="0.5" stroke-miterlimit="10" width="12.1" height="12.1"/>
	<rect x="35.6" y="99.7" fill="none" stroke="#FFFFFF" stroke-width="0.5" stroke-miterlimit="10" width="13.8" height="12.1"/>
	<rect x="198.8" y="99.7" fill="none" stroke="#FFFFFF" stroke-width="0.5" stroke-miterlimit="10" width="13.8" height="12.1"/>
	<rect x="216.1" y="35.4" fill="none" stroke="#FFFFFF" stroke-width="0.5" stroke-miterlimit="10" width="19.2" height="12.1"/>
	<rect x="13.4" y="26.6" fill="none" stroke="#FFFFFF" stroke-width="0.5" stroke-miterlimit="10" width="13.1" height="5.4"/>
	<rect x="29.3" y="26.6" fill="none" stroke="#FFFFFF" stroke-width="0.5" stroke-miterlimit="10" width="13.1" height="5.4"/>
	<rect x="45.3" y="26.6" fill="none" stroke="#FFFFFF" stroke-width="0.5" stroke-miterlimit="10" width="13.1" height="5.4"/>
	<rect x="61.2" y="26.6" fill="none" stroke="#FFFFFF" stroke-width="0.5" stroke-miterlimit="10" width="13.1" height="5.4"/>
	<rect x="77.1" y="26.6" fill="none" stroke="#FFFFFF" stroke-width="0.5" stroke-miterlimit="10" width="13.1" height="5.4"/>
	<rect x="93.1" y="26.6" fill="none" stroke="#FFFFFF" stroke-width="0.5" stroke-miterlimit="10" width="13.1" height="5.4"/>
	<rect x="109" y="26.6" fill="none" stroke="#FFFFFF" stroke-width="0.5" stroke-miterlimit="10" width="13.1" height="5.4"/>
	<rect x="124.9" y="26.6" fill="none" stroke="#FFFFFF" stroke-width="0.5" stroke-miterlimit="10" width="13.1" height="5.4"/>
	<rect x="140.9" y="26.6" fill="none" stroke="#FFFFFF" stroke-width="0.5" stroke-miterlimit="10" width="13.1" height="5.4"/>
	<rect x="156.8" y="26.6" fill="none" stroke="#FFFFFF" stroke-width="0.5" stroke-miterlimit="10" width="13.1" height="5.4"/>
	<rect x="172.7" y="26.6" fill="none" stroke="#FFFFFF" stroke-width="0.5" stroke-miterlimit="10" width="13.1" height="5.4"/>
	<rect x="188.7" y="26.6" fill="none" stroke="#FFFFFF" stroke-width="0.5" stroke-miterlimit="10" width="13.1" height="5.4"/>
	<rect x="204.6" y="26.6" fill="none" stroke="#FFFFFF" stroke-width="0.5" stroke-miterlimit="10" width="13.1" height="5.4"/>
	<rect x="221.6" y="26.6" fill="none" stroke="#FFFFFF" stroke-width="0.5" stroke-miterlimit="10" width="13.1" height="5.4"/>
</g>
</svg>
