<?xml version="1.0" encoding="utf-8"?>
<!-- Generator: Adobe Illustrator 17.1.0, SVG Export Plug-In . SVG Version: 6.00 Build 0)  -->
<!DOCTYPE svg PUBLIC "-//W3C//DTD SVG 1.1//EN" "http://www.w3.org/Graphics/SVG/1.1/DTD/svg11.dtd">
<svg version="1.1" id="Layer_1" xmlns="http://www.w3.org/2000/svg" xmlns:xlink="http://www.w3.org/1999/xlink" x="0px" y="0px"
	 width="91.2px" height="145.5px" viewBox="0 0 91.2 145.5" enable-background="new 0 0 91.2 145.5" xml:space="preserve">
<g>
	<g>
		<path fill="none" stroke="#FFFFFF" stroke-width="0.5" stroke-miterlimit="10" d="M78.4,11v123c0,3.3-2.7,6-6,6H19.9
			c-3.3,0-6-2.7-6-6V11c0-3.3,2.7-6,6-6h52.6C75.7,5.1,78.4,7.7,78.4,11z"/>
	</g>
	<path fill="none" stroke="#FFFFFF" stroke-width="0.5" stroke-miterlimit="10" d="M77.3,12.1v120.8c0,3.2-2.6,5.9-5.8,5.9H20.7
		c-3.2,0-5.8-2.6-5.8-5.9V12.1c0-3.2,2.6-5.9,5.8-5.9h50.9C74.7,6.2,77.3,8.9,77.3,12.1z"/>
	<g>
		<rect x="14.9" y="20.3" fill="none" stroke="#FFFFFF" stroke-width="0.5" stroke-miterlimit="10" width="62.4" height="104"/>
		<circle fill="none" stroke="#FFFFFF" stroke-width="0.5" stroke-miterlimit="10" cx="46.1" cy="131.6" r="5.7"/>
		<circle fill="none" stroke="#FFFFFF" stroke-width="0.5" stroke-miterlimit="10" cx="46.1" cy="10.4" r="0.7"/>
		<circle fill="none" stroke="#FFFFFF" stroke-width="0.5" stroke-miterlimit="10" cx="36.4" cy="14.7" r="0.6"/>
		<path fill="none" stroke="#FFFFFF" stroke-width="0.5" stroke-miterlimit="10" d="M51.7,14.7c0,0.4-0.3,0.7-0.7,0.7H40.7
			c-0.4,0-0.7-0.3-0.7-0.7l0,0c0-0.4,0.3-0.7,0.7-0.7H51C51.4,14,51.7,14.3,51.7,14.7L51.7,14.7z"/>
		<path fill="none" stroke="#FFFFFF" stroke-width="0.5" stroke-miterlimit="10" d="M71.3,5.1H57.2c0-0.5,0.2-1,0.5-1h13
			C71.1,4.1,71.3,4.5,71.3,5.1z"/>
		<rect x="12.8" y="21.8" fill="none" stroke="#FFFFFF" stroke-width="0.5" stroke-miterlimit="10" width="1.1" height="5.7"/>
		<rect x="12.8" y="32.7" fill="none" stroke="#FFFFFF" stroke-width="0.5" stroke-miterlimit="10" width="1.1" height="3.2"/>
		<rect x="12.8" y="40.7" fill="none" stroke="#FFFFFF" stroke-width="0.5" stroke-miterlimit="10" width="1.1" height="3.2"/>
	</g>
</g>
</svg>
