<?xml version="1.0" encoding="utf-8"?>
<!-- Generator: Adobe Illustrator 17.1.0, SVG Export Plug-In . SVG Version: 6.00 Build 0)  -->
<!DOCTYPE svg PUBLIC "-//W3C//DTD SVG 1.1//EN" "http://www.w3.org/Graphics/SVG/1.1/DTD/svg11.dtd">
<svg version="1.1" id="Layer_1" xmlns="http://www.w3.org/2000/svg" xmlns:xlink="http://www.w3.org/1999/xlink" x="0px" y="0px"
	 width="91.2px" height="145.5px" viewBox="0 0 91.2 145.5" enable-background="new 0 0 91.2 145.5" xml:space="preserve">
<g>
	<g>
		<g>
			<path fill="none" stroke="#FFFFFF" stroke-width="0.5" stroke-miterlimit="10" d="M77.8,13v123c0,3.3-2.7,6-6,6H19.3
				c-3.3,0-6-2.7-6-6V13c0-3.3,2.7-6,6-6h52.6C75.1,7,77.8,9.7,77.8,13z"/>
		</g>
		<path fill="none" stroke="#FFFFFF" stroke-width="0.5" stroke-miterlimit="10" d="M76.8,14.1v120.8c0,3.2-2.6,5.9-5.8,5.9H20.1
			c-3.2,0-5.8-2.6-5.8-5.9V14.1c0-3.2,2.6-5.9,5.8-5.9H71C74.2,8.2,76.8,10.8,76.8,14.1z"/>
		<g>
			<rect x="14.3" y="22.3" fill="none" stroke="#FFFFFF" stroke-width="0.5" stroke-miterlimit="10" width="62.4" height="104"/>
			<circle fill="none" stroke="#FFFFFF" stroke-width="0.5" stroke-miterlimit="10" cx="45.5" cy="133.5" r="5.7"/>
			<circle fill="none" stroke="#FFFFFF" stroke-width="0.5" stroke-miterlimit="10" cx="45.6" cy="12.3" r="0.7"/>
			<circle fill="none" stroke="#FFFFFF" stroke-width="0.5" stroke-miterlimit="10" cx="35.8" cy="16.6" r="0.6"/>
			<path fill="none" stroke="#FFFFFF" stroke-width="0.5" stroke-miterlimit="10" d="M51.1,16.6c0,0.4-0.3,0.7-0.7,0.7H40.2
				c-0.4,0-0.7-0.3-0.7-0.7l0,0c0-0.4,0.3-0.7,0.7-0.7h10.2C50.8,15.9,51.1,16.2,51.1,16.6L51.1,16.6z"/>
			<path fill="none" stroke="#FFFFFF" stroke-width="0.5" stroke-miterlimit="10" d="M70.8,7H56.7c0-0.5,0.2-1,0.5-1h13
				C70.5,6,70.8,6.4,70.8,7z"/>
			<rect x="12.2" y="23.7" fill="none" stroke="#FFFFFF" stroke-width="0.5" stroke-miterlimit="10" width="1.1" height="5.7"/>
			<rect x="12.2" y="34.7" fill="none" stroke="#FFFFFF" stroke-width="0.5" stroke-miterlimit="10" width="1.1" height="3.2"/>
			<rect x="12.2" y="42.6" fill="none" stroke="#FFFFFF" stroke-width="0.5" stroke-miterlimit="10" width="1.1" height="3.2"/>
		</g>
	</g>
	<g>
		<path fill="none" stroke="#FFFFFF" stroke-width="0.5" stroke-miterlimit="10" d="M29.3,119.3c0,1.1-0.9,2.1-2.1,2.1h-7.9
			c-1.1,0-2.1-0.9-2.1-2.1v-7.9c0-1.1,0.9-2.1,2.1-2.1h7.9c1.1,0,2.1,0.9,2.1,2.1V119.3z"/>
		<path fill="none" stroke="#FFFFFF" stroke-width="0.5" stroke-miterlimit="10" d="M44,119.3c0,1.1-0.9,2.1-2.1,2.1H34
			c-1.1,0-2.1-0.9-2.1-2.1v-7.9c0-1.1,0.9-2.1,2.1-2.1H42c1.1,0,2.1,0.9,2.1,2.1V119.3z"/>
		<path fill="none" stroke="#FFFFFF" stroke-width="0.5" stroke-miterlimit="10" d="M58.7,119.3c0,1.1-0.9,2.1-2.1,2.1h-7.9
			c-1.1,0-2.1-0.9-2.1-2.1v-7.9c0-1.1,0.9-2.1,2.1-2.1h7.9c1.1,0,2.1,0.9,2.1,2.1V119.3z"/>
		<path fill="none" stroke="#FFFFFF" stroke-width="0.5" stroke-miterlimit="10" d="M73.4,119.3c0,1.1-0.9,2.1-2.1,2.1h-7.9
			c-1.1,0-2.1-0.9-2.1-2.1v-7.9c0-1.1,0.9-2.1,2.1-2.1h7.9c1.1,0,2.1,0.9,2.1,2.1V119.3z"/>
	</g>
	<g>
		<path fill="none" stroke="#FFFFFF" stroke-width="0.5" stroke-miterlimit="10" d="M29.3,36.5c0,1.1-0.9,2.1-2.1,2.1h-7.9
			c-1.1,0-2.1-0.9-2.1-2.1v-7.9c0-1.1,0.9-2.1,2.1-2.1h7.9c1.1,0,2.1,0.9,2.1,2.1V36.5z"/>
		<path fill="none" stroke="#FFFFFF" stroke-width="0.5" stroke-miterlimit="10" d="M44,36.5c0,1.1-0.9,2.1-2.1,2.1H34
			c-1.1,0-2.1-0.9-2.1-2.1v-7.9c0-1.1,0.9-2.1,2.1-2.1H42c1.1,0,2.1,0.9,2.1,2.1V36.5z"/>
		<path fill="none" stroke="#FFFFFF" stroke-width="0.5" stroke-miterlimit="10" d="M58.7,36.5c0,1.1-0.9,2.1-2.1,2.1h-7.9
			c-1.1,0-2.1-0.9-2.1-2.1v-7.9c0-1.1,0.9-2.1,2.1-2.1h7.9c1.1,0,2.1,0.9,2.1,2.1V36.5z"/>
		<path fill="none" stroke="#FFFFFF" stroke-width="0.5" stroke-miterlimit="10" d="M73.4,36.5c0,1.1-0.9,2.1-2.1,2.1h-7.9
			c-1.1,0-2.1-0.9-2.1-2.1v-7.9c0-1.1,0.9-2.1,2.1-2.1h7.9c1.1,0,2.1,0.9,2.1,2.1V36.5z"/>
	</g>
	<g>
		<path fill="none" stroke="#FFFFFF" stroke-width="0.5" stroke-miterlimit="10" d="M29.3,53.1c0,1.1-0.9,2.1-2.1,2.1h-7.9
			c-1.1,0-2.1-0.9-2.1-2.1v-7.9c0-1.1,0.9-2.1,2.1-2.1h7.9c1.1,0,2.1,0.9,2.1,2.1V53.1z"/>
		<path fill="none" stroke="#FFFFFF" stroke-width="0.5" stroke-miterlimit="10" d="M44,53.1c0,1.1-0.9,2.1-2.1,2.1H34
			c-1.1,0-2.1-0.9-2.1-2.1v-7.9c0-1.1,0.9-2.1,2.1-2.1H42c1.1,0,2.1,0.9,2.1,2.1V53.1z"/>
		<path fill="none" stroke="#FFFFFF" stroke-width="0.5" stroke-miterlimit="10" d="M58.7,53.1c0,1.1-0.9,2.1-2.1,2.1h-7.9
			c-1.1,0-2.1-0.9-2.1-2.1v-7.9c0-1.1,0.9-2.1,2.1-2.1h7.9c1.1,0,2.1,0.9,2.1,2.1V53.1z"/>
		<path fill="none" stroke="#FFFFFF" stroke-width="0.5" stroke-miterlimit="10" d="M73.4,53.1c0,1.1-0.9,2.1-2.1,2.1h-7.9
			c-1.1,0-2.1-0.9-2.1-2.1v-7.9c0-1.1,0.9-2.1,2.1-2.1h7.9c1.1,0,2.1,0.9,2.1,2.1V53.1z"/>
	</g>
	<g>
		<path fill="none" stroke="#FFFFFF" stroke-width="0.5" stroke-miterlimit="10" d="M29.3,69.6c0,1.1-0.9,2.1-2.1,2.1h-7.9
			c-1.1,0-2.1-0.9-2.1-2.1v-7.9c0-1.1,0.9-2.1,2.1-2.1h7.9c1.1,0,2.1,0.9,2.1,2.1V69.6z"/>
		<path fill="none" stroke="#FFFFFF" stroke-width="0.5" stroke-miterlimit="10" d="M44,69.6c0,1.1-0.9,2.1-2.1,2.1H34
			c-1.1,0-2.1-0.9-2.1-2.1v-7.9c0-1.1,0.9-2.1,2.1-2.1H42c1.1,0,2.1,0.9,2.1,2.1V69.6z"/>
		<path fill="none" stroke="#FFFFFF" stroke-width="0.5" stroke-miterlimit="10" d="M58.7,69.6c0,1.1-0.9,2.1-2.1,2.1h-7.9
			c-1.1,0-2.1-0.9-2.1-2.1v-7.9c0-1.1,0.9-2.1,2.1-2.1h7.9c1.1,0,2.1,0.9,2.1,2.1V69.6z"/>
		<path fill="none" stroke="#FFFFFF" stroke-width="0.5" stroke-miterlimit="10" d="M73.4,69.6c0,1.1-0.9,2.1-2.1,2.1h-7.9
			c-1.1,0-2.1-0.9-2.1-2.1v-7.9c0-1.1,0.9-2.1,2.1-2.1h7.9c1.1,0,2.1,0.9,2.1,2.1V69.6z"/>
	</g>
	<g>
		<path fill="none" stroke="#FFFFFF" stroke-width="0.5" stroke-miterlimit="10" d="M29.3,86.2c0,1.1-0.9,2.1-2.1,2.1h-7.9
			c-1.1,0-2.1-0.9-2.1-2.1v-7.9c0-1.1,0.9-2.1,2.1-2.1h7.9c1.1,0,2.1,0.9,2.1,2.1V86.2z"/>
		<path fill="none" stroke="#FFFFFF" stroke-width="0.5" stroke-miterlimit="10" d="M44,86.2c0,1.1-0.9,2.1-2.1,2.1H34
			c-1.1,0-2.1-0.9-2.1-2.1v-7.9c0-1.1,0.9-2.1,2.1-2.1H42c1.1,0,2.1,0.9,2.1,2.1V86.2z"/>
		<path fill="none" stroke="#FFFFFF" stroke-width="0.5" stroke-miterlimit="10" d="M58.7,86.2c0,1.1-0.9,2.1-2.1,2.1h-7.9
			c-1.1,0-2.1-0.9-2.1-2.1v-7.9c0-1.1,0.9-2.1,2.1-2.1h7.9c1.1,0,2.1,0.9,2.1,2.1V86.2z"/>
		<path fill="none" stroke="#FFFFFF" stroke-width="0.5" stroke-miterlimit="10" d="M73.4,86.2c0,1.1-0.9,2.1-2.1,2.1h-7.9
			c-1.1,0-2.1-0.9-2.1-2.1v-7.9c0-1.1,0.9-2.1,2.1-2.1h7.9c1.1,0,2.1,0.9,2.1,2.1V86.2z"/>
	</g>
	<path fill="none" stroke="#FFFFFF" stroke-width="0.5" stroke-miterlimit="10" d="M29.3,102.7c0,1.1-0.9,2.1-2.1,2.1h-7.9
		c-1.1,0-2.1-0.9-2.1-2.1v-7.9c0-1.1,0.9-2.1,2.1-2.1h7.9c1.1,0,2.1,0.9,2.1,2.1V102.7z"/>
	<path fill="none" stroke="#FFFFFF" stroke-width="0.5" stroke-miterlimit="10" d="M44,102.7c0,1.1-0.9,2.1-2.1,2.1H34
		c-1.1,0-2.1-0.9-2.1-2.1v-7.9c0-1.1,0.9-2.1,2.1-2.1H42c1.1,0,2.1,0.9,2.1,2.1V102.7z"/>
</g>
</svg>
