<?xml version="1.0" encoding="utf-8"?>
<!-- Generator: Adobe Illustrator 17.1.0, SVG Export Plug-In . SVG Version: 6.00 Build 0)  -->
<!DOCTYPE svg PUBLIC "-//W3C//DTD SVG 1.1//EN" "http://www.w3.org/Graphics/SVG/1.1/DTD/svg11.dtd">
<svg version="1.1" id="Layer_1" xmlns="http://www.w3.org/2000/svg" xmlns:xlink="http://www.w3.org/1999/xlink" x="0px" y="0px"
	 width="612px" height="792px" viewBox="0 0 612 792" enable-background="new 0 0 612 792" xml:space="preserve">
<g>
	<g>
		<g>
			<path fill="none" stroke="#FFFFFF" stroke-width="2.4949" stroke-miterlimit="10" d="M461,107.2v582c0,15.6-12.6,28.3-28.2,28.3
				H184c-15.6,0-28.3-12.6-28.3-28.3v-582c0-15.6,12.6-28.3,28.2-28.3h248.7C448.3,78.9,461,91.5,461,107.2z"/>
		</g>
		<path fill="none" stroke="#FFFFFF" stroke-width="2.4949" stroke-miterlimit="10" d="M456,112.3v571.7c0,15.4-12.2,27.8-27.3,27.8
			H187.9c-15.1,0-27.4-12.4-27.4-27.8V112.3c0-15.4,12.2-27.8,27.3-27.8h240.8C443.8,84.5,456,97,456,112.3z"/>
		<g>
			
				<rect x="160.5" y="151.2" fill="none" stroke="#FFFFFF" stroke-width="2.4949" stroke-miterlimit="10" width="295.5" height="492.4"/>
			<circle fill="none" stroke="#FFFFFF" stroke-width="2.4949" stroke-miterlimit="10" cx="308.3" cy="677.6" r="27"/>
			<circle fill="none" stroke="#FFFFFF" stroke-width="2.4949" stroke-miterlimit="10" cx="308.3" cy="104.3" r="3.4"/>
			<circle fill="none" stroke="#FFFFFF" stroke-width="2.4949" stroke-miterlimit="10" cx="262.2" cy="124.4" r="2.7"/>
			<path fill="none" stroke="#FFFFFF" stroke-width="2.4949" stroke-miterlimit="10" d="M334.5,124.4c0,1.7-1.4,3.2-3.2,3.2h-48.5
				c-1.7,0-3.2-1.4-3.2-3.2l0,0c0-1.7,1.4-3.2,3.2-3.2h48.5C333.1,121.2,334.5,122.6,334.5,124.4L334.5,124.4z"/>
			<path fill="none" stroke="#FFFFFF" stroke-width="2.4949" stroke-miterlimit="10" d="M427.6,78.9h-66.7c0-2.6,1.1-4.7,2.5-4.7
				h61.7C426.5,74.2,427.6,76.3,427.6,78.9z"/>
			
				<rect x="150.7" y="157.9" fill="none" stroke="#FFFFFF" stroke-width="2.4949" stroke-miterlimit="10" width="5.1" height="27.1"/>
			
				<rect x="150.7" y="209.9" fill="none" stroke="#FFFFFF" stroke-width="2.4949" stroke-miterlimit="10" width="5.1" height="15.2"/>
			
				<rect x="150.7" y="247.4" fill="none" stroke="#FFFFFF" stroke-width="2.4949" stroke-miterlimit="10" width="5.1" height="15.2"/>
		</g>
	</g>
	<g>
		<path fill="none" stroke="#FFFFFF" stroke-width="2.4949" stroke-miterlimit="10" d="M231.4,610.3c0,5.4-4.4,9.8-9.8,9.8h-37.4
			c-5.4,0-9.8-4.4-9.8-9.8v-37.4c0-5.4,4.4-9.8,9.8-9.8h37.4c5.4,0,9.8,4.4,9.8,9.8V610.3z"/>
		<path fill="none" stroke="#FFFFFF" stroke-width="2.4949" stroke-miterlimit="10" d="M301,610.3c0,5.4-4.4,9.8-9.8,9.8h-37.4
			c-5.4,0-9.8-4.4-9.8-9.8v-37.4c0-5.4,4.4-9.8,9.8-9.8h37.4c5.4,0,9.8,4.4,9.8,9.8V610.3z"/>
		<path fill="none" stroke="#FFFFFF" stroke-width="2.4949" stroke-miterlimit="10" d="M370.6,610.3c0,5.4-4.4,9.8-9.8,9.8h-37.4
			c-5.4,0-9.8-4.4-9.8-9.8v-37.4c0-5.4,4.4-9.8,9.8-9.8h37.4c5.4,0,9.8,4.4,9.8,9.8V610.3z"/>
		<path fill="none" stroke="#FFFFFF" stroke-width="2.4949" stroke-miterlimit="10" d="M440.2,610.3c0,5.4-4.4,9.8-9.8,9.8H393
			c-5.4,0-9.8-4.4-9.8-9.8v-37.4c0-5.4,4.4-9.8,9.8-9.8h37.4c5.4,0,9.8,4.4,9.8,9.8V610.3z"/>
	</g>
	<g>
		<path fill="none" stroke="#FFFFFF" stroke-width="2.4949" stroke-miterlimit="10" d="M231.4,218.7c0,5.4-4.4,9.8-9.8,9.8h-37.4
			c-5.4,0-9.8-4.4-9.8-9.8v-37.4c0-5.4,4.4-9.8,9.8-9.8h37.4c5.4,0,9.8,4.4,9.8,9.8V218.7z"/>
		<path fill="none" stroke="#FFFFFF" stroke-width="2.4949" stroke-miterlimit="10" d="M301,218.7c0,5.4-4.4,9.8-9.8,9.8h-37.4
			c-5.4,0-9.8-4.4-9.8-9.8v-37.4c0-5.4,4.4-9.8,9.8-9.8h37.4c5.4,0,9.8,4.4,9.8,9.8V218.7z"/>
		<path fill="none" stroke="#FFFFFF" stroke-width="2.4949" stroke-miterlimit="10" d="M370.6,218.7c0,5.4-4.4,9.8-9.8,9.8h-37.4
			c-5.4,0-9.8-4.4-9.8-9.8v-37.4c0-5.4,4.4-9.8,9.8-9.8h37.4c5.4,0,9.8,4.4,9.8,9.8V218.7z"/>
		<path fill="none" stroke="#FFFFFF" stroke-width="2.4949" stroke-miterlimit="10" d="M440.2,218.7c0,5.4-4.4,9.8-9.8,9.8H393
			c-5.4,0-9.8-4.4-9.8-9.8v-37.4c0-5.4,4.4-9.8,9.8-9.8h37.4c5.4,0,9.8,4.4,9.8,9.8V218.7z"/>
	</g>
	<g>
		<path fill="none" stroke="#FFFFFF" stroke-width="2.4949" stroke-miterlimit="10" d="M231.4,297c0,5.4-4.4,9.8-9.8,9.8h-37.4
			c-5.4,0-9.8-4.4-9.8-9.8v-37.4c0-5.4,4.4-9.8,9.8-9.8h37.4c5.4,0,9.8,4.4,9.8,9.8V297z"/>
		<path fill="none" stroke="#FFFFFF" stroke-width="2.4949" stroke-miterlimit="10" d="M301,297c0,5.4-4.4,9.8-9.8,9.8h-37.4
			c-5.4,0-9.8-4.4-9.8-9.8v-37.4c0-5.4,4.4-9.8,9.8-9.8h37.4c5.4,0,9.8,4.4,9.8,9.8V297z"/>
		<path fill="none" stroke="#FFFFFF" stroke-width="2.4949" stroke-miterlimit="10" d="M370.6,297c0,5.4-4.4,9.8-9.8,9.8h-37.4
			c-5.4,0-9.8-4.4-9.8-9.8v-37.4c0-5.4,4.4-9.8,9.8-9.8h37.4c5.4,0,9.8,4.4,9.8,9.8V297z"/>
		<path fill="none" stroke="#FFFFFF" stroke-width="2.4949" stroke-miterlimit="10" d="M440.2,297c0,5.4-4.4,9.8-9.8,9.8H393
			c-5.4,0-9.8-4.4-9.8-9.8v-37.4c0-5.4,4.4-9.8,9.8-9.8h37.4c5.4,0,9.8,4.4,9.8,9.8V297z"/>
	</g>
	<g>
		<path fill="none" stroke="#FFFFFF" stroke-width="2.4949" stroke-miterlimit="10" d="M231.4,375.3c0,5.4-4.4,9.8-9.8,9.8h-37.4
			c-5.4,0-9.8-4.4-9.8-9.8v-37.4c0-5.4,4.4-9.8,9.8-9.8h37.4c5.4,0,9.8,4.4,9.8,9.8V375.3z"/>
		<path fill="none" stroke="#FFFFFF" stroke-width="2.4949" stroke-miterlimit="10" d="M301,375.3c0,5.4-4.4,9.8-9.8,9.8h-37.4
			c-5.4,0-9.8-4.4-9.8-9.8v-37.4c0-5.4,4.4-9.8,9.8-9.8h37.4c5.4,0,9.8,4.4,9.8,9.8V375.3z"/>
		<path fill="none" stroke="#FFFFFF" stroke-width="2.4949" stroke-miterlimit="10" d="M370.6,375.3c0,5.4-4.4,9.8-9.8,9.8h-37.4
			c-5.4,0-9.8-4.4-9.8-9.8v-37.4c0-5.4,4.4-9.8,9.8-9.8h37.4c5.4,0,9.8,4.4,9.8,9.8V375.3z"/>
		<path fill="none" stroke="#FFFFFF" stroke-width="2.4949" stroke-miterlimit="10" d="M440.2,375.3c0,5.4-4.4,9.8-9.8,9.8H393
			c-5.4,0-9.8-4.4-9.8-9.8v-37.4c0-5.4,4.4-9.8,9.8-9.8h37.4c5.4,0,9.8,4.4,9.8,9.8V375.3z"/>
	</g>
	<g>
		<path fill="none" stroke="#FFFFFF" stroke-width="2.4949" stroke-miterlimit="10" d="M231.4,453.7c0,5.4-4.4,9.8-9.8,9.8h-37.4
			c-5.4,0-9.8-4.4-9.8-9.8v-37.4c0-5.4,4.4-9.8,9.8-9.8h37.4c5.4,0,9.8,4.4,9.8,9.8V453.7z"/>
		<path fill="none" stroke="#FFFFFF" stroke-width="2.4949" stroke-miterlimit="10" d="M301,453.7c0,5.4-4.4,9.8-9.8,9.8h-37.4
			c-5.4,0-9.8-4.4-9.8-9.8v-37.4c0-5.4,4.4-9.8,9.8-9.8h37.4c5.4,0,9.8,4.4,9.8,9.8V453.7z"/>
		<path fill="none" stroke="#FFFFFF" stroke-width="2.4949" stroke-miterlimit="10" d="M370.6,453.7c0,5.4-4.4,9.8-9.8,9.8h-37.4
			c-5.4,0-9.8-4.4-9.8-9.8v-37.4c0-5.4,4.4-9.8,9.8-9.8h37.4c5.4,0,9.8,4.4,9.8,9.8V453.7z"/>
		<path fill="none" stroke="#FFFFFF" stroke-width="2.4949" stroke-miterlimit="10" d="M440.2,453.7c0,5.4-4.4,9.8-9.8,9.8H393
			c-5.4,0-9.8-4.4-9.8-9.8v-37.4c0-5.4,4.4-9.8,9.8-9.8h37.4c5.4,0,9.8,4.4,9.8,9.8V453.7z"/>
	</g>
	<path fill="none" stroke="#FFFFFF" stroke-width="2.4949" stroke-miterlimit="10" d="M231.4,532c0,5.4-4.4,9.8-9.8,9.8h-37.4
		c-5.4,0-9.8-4.4-9.8-9.8v-37.4c0-5.4,4.4-9.8,9.8-9.8h37.4c5.4,0,9.8,4.4,9.8,9.8V532z"/>
	<path fill="none" stroke="#FFFFFF" stroke-width="2.4949" stroke-miterlimit="10" d="M301,532c0,5.4-4.4,9.8-9.8,9.8h-37.4
		c-5.4,0-9.8-4.4-9.8-9.8v-37.4c0-5.4,4.4-9.8,9.8-9.8h37.4c5.4,0,9.8,4.4,9.8,9.8V532z"/>
</g>
</svg>
