<?xml version="1.0" encoding="utf-8"?>
<!-- Generator: Adobe Illustrator 17.1.0, SVG Export Plug-In . SVG Version: 6.00 Build 0)  -->
<!DOCTYPE svg PUBLIC "-//W3C//DTD SVG 1.1//EN" "http://www.w3.org/Graphics/SVG/1.1/DTD/svg11.dtd">
<svg version="1.1" id="Layer_1" xmlns="http://www.w3.org/2000/svg" xmlns:xlink="http://www.w3.org/1999/xlink" x="0px" y="0px"
	 width="51px" height="132.5px" viewBox="0 0 51 132.5" enable-background="new 0 0 51 132.5" xml:space="preserve">
<g>
	<path fill="none" stroke="#FFFFFF" stroke-width="0.4956" stroke-miterlimit="10" d="M39.8,13.4l1.3-4.3c0.3-1.1,1.6-1.7,2.8-1.3
		c1.2,0.4,1.9,1.6,1.6,2.7l-1.3,4.3L39.8,13.4z"/>
	<g>
		<polygon fill="none" stroke="#FFFFFF" stroke-width="0.4956" stroke-miterlimit="10" points="6.4,115.9 14.7,118.5 17.5,115.5 
			5.6,111.9 		"/>
		<polygon fill="none" stroke="#FFFFFF" stroke-width="0.4956" stroke-miterlimit="10" points="6.4,115.9 14.7,118.5 8.2,126.7 
			7,126.4 		"/>
		<path fill="none" stroke="#FFFFFF" stroke-width="0.4956" stroke-miterlimit="10" d="M7,127.4l0.3-0.9l0.6,0.2l-0.3,0.9
			c0,0.1-0.2,0.2-0.4,0.2C7.1,127.7,7,127.5,7,127.4z"/>
	</g>
	<path fill="none" stroke="#FFFFFF" stroke-width="0.4956" stroke-miterlimit="10" d="M5.5,111.9c0,0,5.3-10.9,6.9-16.2l25.3-82.9
		l8.4,2.6L20.9,98.2c-1.6,5.3-3.3,17.3-3.3,17.3L5.5,111.9z"/>
	<g>
		
			<rect x="16.5" y="89.4" transform="matrix(-0.9563 -0.2924 0.2924 -0.9563 7.5415 187.6958)" fill="none" stroke="#FFFFFF" stroke-width="0.4956" stroke-miterlimit="10" width="2.6" height="7.8"/>
		
			<rect x="19.6" y="76.5" transform="matrix(-0.9563 -0.2924 0.2924 -0.9563 16.5361 168.8383)" fill="none" stroke="#FFFFFF" stroke-width="0.4956" stroke-miterlimit="10" width="2.6" height="13.3"/>
	</g>
	
		<rect x="37.2" y="14" transform="matrix(-0.9563 -0.2924 0.2924 -0.9563 76.8343 42.4206)" fill="none" stroke="#FFFFFF" stroke-width="0.4956" stroke-miterlimit="10" width="8.8" height="2.9"/>
	<line fill="none" stroke="#FFFFFF" stroke-width="0.4956" stroke-miterlimit="10" x1="11" y1="123.2" x2="6.7" y2="121.9"/>
	<line fill="none" stroke="#FFFFFF" stroke-width="0.4956" stroke-miterlimit="10" x1="33.6" y1="56.7" x2="25.2" y2="54.1"/>
</g>
</svg>
