<?xml version="1.0" encoding="utf-8"?>
<!-- Generator: Adobe Illustrator 17.1.0, SVG Export Plug-In . SVG Version: 6.00 Build 0)  -->
<!DOCTYPE svg PUBLIC "-//W3C//DTD SVG 1.1//EN" "http://www.w3.org/Graphics/SVG/1.1/DTD/svg11.dtd">
<svg version="1.1" id="Layer_1" xmlns="http://www.w3.org/2000/svg" xmlns:xlink="http://www.w3.org/1999/xlink" x="0px" y="0px"
	 width="301.1px" height="124.4px" viewBox="0 0 301.1 124.4" enable-background="new 0 0 301.1 124.4" xml:space="preserve">
<g>
	<path fill="none" stroke="#2D2D2D" stroke-linecap="round" stroke-miterlimit="10" d="M217.8,11.8c0.5,0.4,10.3-9.9,17.8-11.3"/>
	<path fill="#2D2D2D" d="M211.4,11.9c0.5,0.3,17.1-2.5,18.9-1c1.8,1.5,1.4,3.9,1.4,3.9L211.4,11.9z"/>
	<path fill="#191919" d="M11.5,106.9c0,0-3.1,3.6,3.3,5c6.4,1.4,22.8,0,25.5,0c2.8,0,10.6-0.6,13.3-0.6c2.5,0,7.2-0.6,7.2-0.6
		l163.4-3.9l48.4-3.7l6-29.6l-153.9-8.3L24,76.1L11.5,106.9z"/>
	<path fill="#92C83E" d="M295.4,103.2c-0.8,0.1-9.2,0.4-22.7,0.7c0-0.2,0-0.5,0-0.7c0-15.9-12.9-28.9-28.9-28.9
		c-15.9,0-28.9,12.9-28.9,28.9c0,0.7,0,1.3,0.1,2c-37.6,0.8-82.4,1.6-120.6,2.3c0.2-1.4,0.3-2.9,0.3-4.3c0-15.9-12.9-28.9-28.9-28.9
		C49.9,74.3,37,87.2,37,103.2c0,1.8,0.2,3.6,0.5,5.4c-13,0.2-22.4,0.4-26.7,0.5c-1.7,0-2.6,0-2.6,0S-2.1,98.4,0.4,91.6
		c0.9-2.3,1.8-4.5,2.8-6.4C5,81.7,7,78.7,9.1,76.3c0.1-0.2,0.3-0.4,0.5-0.5c0,0,0,0,0,0c6.9-7.8,14.1-9.6,16.2-10.3
		c6.9-2.4,42.4-14.1,51.6-18c9.2-3.8,40.1-22.1,53.4-26.4C162.6,11,216,8.3,236.9,15.3c13.3,4.4,33.9,19.4,41.8,23.7
		c7.9,4.3,19.8,4.8,19.8,4.8l-2.9,5.5l5,28.9C300.5,78.2,303.7,96.2,295.4,103.2z"/>
	<circle fill="#2D2D2D" cx="65.9" cy="102.2" r="22.2"/>
	<circle fill="#A8A8A8" cx="65.9" cy="102.2" r="16.5"/>
	<circle fill="#D8D2D5" cx="65.9" cy="102.2" r="8.9"/>
	<circle fill="#2D2D2D" cx="243.4" cy="101.7" r="22.2"/>
	<circle fill="#A8A8A8" cx="243.4" cy="101.7" r="16.5"/>
	<path fill="#2D2D2D" d="M88.1,52.7l164-7.2c0,0,1.5-13.6-4.8-18.1S221.4,13,179.9,16.8S121,27,88.1,52.7z"/>
	<path fill="#75C4CC" d="M96.7,50.7c26.7-19.6,44-25.3,81.7-28.8c6.1-0.6,12-0.8,17.5-0.8c30.3,0,44.1,8.3,47.6,10.8
		c3,2.1,3.6,8.2,3.6,12.2L96.7,50.7z"/>
	<polygon fill="#2D2D2D" points="188,47.9 188,18.5 172.5,20.3 168.8,47.9 	"/>
	<line fill="none" stroke="#2D2D2D" stroke-width="2.2199" stroke-miterlimit="10" x1="234.4" y1="25.3" x2="233" y2="46.2"/>
	<line fill="none" stroke="#2D2D2D" stroke-width="1.8667" stroke-miterlimit="10" x1="113.6" y1="35.9" x2="112.3" y2="50.7"/>
	<path fill="#83B232" d="M122.8,40.7c0,0-8.9-0.6-12.5,3.4s-2.2,7.9,0,9.6c2.2,1.7,14.2,2.2,14.4,0s0-7.9,0-7.9L122.8,40.7z"/>
	<path fill="#EEEFED" d="M40.9,74.3c-0.6,1.9-1.8,4.3-3.6,5.2c0,0,0,0,0,0c-1.6,0.8-8.7,2.1-16,3.2c-8.9,1.4-18.1,2.5-18.1,2.5
		C5,81.7,7,78.7,9.1,76.3c0.1-0.2,0.3-0.4,0.5-0.5c8.3-0.7,30.4-4.2,31.6-3.9C41.9,72,41.5,72.5,40.9,74.3z"/>
	<path fill="#EEEFED" d="M40.8,74.1c-0.6,1.9-1.8,4.3-3.6,5.2l0,0c-1.5,0.8-8,2-14.8,3c0.7-2.8,2.8-6,5.1-9c6.9-0.9,13-1.8,13.6-1.7
		C41.8,71.9,41.4,72.4,40.8,74.1z"/>
	<polygon fill="#9B311C" points="295.5,49.3 285,71.7 299.4,71.7 	"/>
	<polygon fill="#EEEFED" points="298,63.3 292.2,63.3 292.2,71.7 299.4,71.7 	"/>
	<circle fill="#D8D2D5" cx="243.4" cy="101.8" r="8.9"/>
	<g opacity="0.58">
		<linearGradient id="SVGID_1_" gradientUnits="userSpaceOnUse" x1="23.0304" y1="95.3531" x2="23.0304" y2="109.0885">
			<stop  offset="0" style="stop-color:#FFFFFF"/>
			<stop  offset="1" style="stop-color:#FFFFFF;stop-opacity:0"/>
		</linearGradient>
		<path fill="url(#SVGID_1_)" d="M38.1,95.4c-0.7,2.5-1.1,5.1-1.1,7.8c0,1.8,0.2,3.6,0.5,5.4c-13,0.2-22.4,0.4-26.7,0.5
			c-1.7,0-2.6,0-2.6,0S8.1,109,8,108.8c6.5-5.5,14.3-12.5,14.3-12.5L38.1,95.4z"/>
		<linearGradient id="SVGID_2_" gradientUnits="userSpaceOnUse" x1="157.3015" y1="84.0935" x2="157.3015" y2="107.5852">
			<stop  offset="0" style="stop-color:#FFFFFF"/>
			<stop  offset="1" style="stop-color:#FFFFFF;stop-opacity:0"/>
		</linearGradient>
		<path fill="url(#SVGID_2_)" d="M222.2,84.1c-4.5,5.1-7.3,11.8-7.3,19.2c0,0.7,0,1.3,0.1,2c-37.6,0.8-82.4,1.6-120.6,2.3
			c0.2-1.4,0.3-2.9,0.3-4.3c0-4-0.8-7.7-2.2-11.2L222.2,84.1z"/>
		<linearGradient id="SVGID_3_" gradientUnits="userSpaceOnUse" x1="282.0189" y1="79.1227" x2="282.0189" y2="103.9075">
			<stop  offset="0" style="stop-color:#FFFFFF"/>
			<stop  offset="1" style="stop-color:#FFFFFF;stop-opacity:0"/>
		</linearGradient>
		<path fill="url(#SVGID_3_)" d="M295.4,103.2c-0.8,0.1-9.2,0.4-22.7,0.7c0-0.2,0-0.5,0-0.7c0-8.6-3.8-16.4-9.8-21.7l32.9-2l4.9-0.4
			C301.2,82.9,302.6,97.2,295.4,103.2z"/>
	</g>
	<path fill="#DD9757" d="M40.8,74.1c-0.6,1.9-1.8,4.3-3.6,5.2l0,0c-1.5,0.8-8,2-14.8,3c0.7-2.8,2.8-6,5.1-9c6.9-0.9,13-1.8,13.6-1.7
		C41.8,71.9,41.4,72.4,40.8,74.1z"/>
	<ellipse fill="none" stroke="#83B232" stroke-miterlimit="10" cx="265" cy="53.9" rx="7.4" ry="6.3"/>
	<circle fill="#83B232" cx="157.9" cy="59.2" r="5.4"/>
	<circle fill="#83B232" cx="226.5" cy="55.8" r="5.3"/>
	
		<rect x="147.7" y="57.5" transform="matrix(0.9997 -2.426494e-02 2.426494e-02 0.9997 -1.3899 3.8716)" fill="#92C83E" stroke="#83B232" stroke-miterlimit="10" width="22.2" height="3.5"/>
	
		<rect x="215.4" y="54.1" transform="matrix(0.9997 -2.426494e-02 2.426494e-02 0.9997 -1.2875 5.5118)" fill="#92C83E" stroke="#83B232" stroke-miterlimit="10" width="22.2" height="3.5"/>
	<path fill="none" stroke="#83B232" stroke-miterlimit="10" d="M252.1,45.5c0,0-28,31.7-44,56.1c-27.4,2.3-103.6,2.3-103.6,2.3
		s-14-39-1.2-51.9"/>
	<path fill="none" stroke="#83B232" stroke-miterlimit="10" d="M178.3,48.5c0,0-7.6,33.1,0,54.3"/>
	<path fill="#191919" d="M8.4,97c5.4-0.4,8.7-0.7,8.7-0.7l2,10.5h-5.9L8.4,97z"/>
	<path opacity="0.35" fill="#191919" d="M3.2,97.3c5.4-0.4,8.6-0.6,8.6-0.6l2,10.1H7.9L3.2,97.3z"/>
	<g>
		<polygon fill="#191919" points="65.9,111.6 66.5,115 67.1,118.4 65.9,118.4 64.7,118.4 65.3,115 		"/>
		<polygon fill="#191919" points="74.7,105.2 78.2,105.7 81.6,106.2 81.2,107.3 80.8,108.5 77.8,106.9 		"/>
		<polygon fill="#191919" points="71.3,94.8 72.8,91.7 74.3,88.5 75.3,89.2 76.3,90 73.8,92.4 		"/>
		<polygon fill="#191919" points="60.8,94.5 58.3,92.1 55.8,89.7 56.8,89 57.8,88.3 59.3,91.4 		"/>
		<polygon fill="#191919" points="57,105 54,106.6 50.9,108.2 50.5,107.1 50.1,105.9 53.6,105.4 		"/>
	</g>
	<g>
		<polygon fill="#191919" points="243.4,111.1 244,114.5 244.6,117.9 243.4,117.9 242.2,117.9 242.8,114.5 		"/>
		<polygon fill="#191919" points="252.2,104.8 255.7,105.3 259.1,105.7 258.7,106.9 258.4,108 255.3,106.4 		"/>
		<polygon fill="#191919" points="248.8,94.3 250.3,91.2 251.9,88.1 252.8,88.8 253.8,89.5 251.3,91.9 		"/>
		<polygon fill="#191919" points="238.3,94 235.8,91.6 233.3,89.2 234.3,88.5 235.3,87.8 236.8,90.9 		"/>
		<polygon fill="#191919" points="234.5,104.5 231.5,106.1 228.4,107.8 228,106.6 227.7,105.4 231.1,105 		"/>
	</g>
</g>
</svg>
