<?xml version="1.0" encoding="utf-8"?>
<!-- Generator: Adobe Illustrator 17.1.0, SVG Export Plug-In . SVG Version: 6.00 Build 0)  -->
<!DOCTYPE svg PUBLIC "-//W3C//DTD SVG 1.1//EN" "http://www.w3.org/Graphics/SVG/1.1/DTD/svg11.dtd">
<svg version="1.1" id="Layer_1" xmlns="http://www.w3.org/2000/svg" xmlns:xlink="http://www.w3.org/1999/xlink" x="0px" y="0px"
	 width="171px" height="666.9px" viewBox="0 0 171 666.9" enable-background="new 0 0 171 666.9" xml:space="preserve">
<g>
	<rect x="13" y="50.9" fill="#664C33" width="145" height="503"/>
	<g>
		<rect x="33" y="193.9" fill="#5F452B" width="104" height="355"/>
		<path fill="#472C16" d="M136,194.9v353H34v-353H136 M138,192.9H32v357h106V192.9L138,192.9z"/>
	</g>
	<rect x="32" y="12.9" fill="#5F452B" width="107" height="167"/>
	<rect x="7" y="551.9" fill="#664C33" width="157" height="100"/>
	<g>
		<rect x="27" y="562.9" fill="#5F452B" width="116" height="86"/>
		<path fill="#472C16" d="M142,563.9v84H28v-84H142 M144,561.9H26v88h118V561.9L144,561.9z"/>
	</g>
	<rect x="42" y="574.9" fill="#5F452B" stroke="#472C16" stroke-width="2" stroke-miterlimit="10" width="85" height="65"/>
	<rect y="651.9" fill="#5F452B" width="171" height="15"/>
	<rect x="7" y="179.9" fill="#5F452B" width="157" height="13"/>
	<rect y="551.9" fill="#5F452B" width="171" height="11"/>
	<rect x="49" y="224.9" fill="#161110" width="71" height="291"/>
	<circle fill="#5F452B" cx="85.2" cy="51.3" r="51.3"/>
	<g>
		<path fill="#472C16" d="M84.9,12.1c9.5,0,18.7,3.4,25.8,9.6l2.8,2.5l0.6,0.7h0.8H126v14H43v-14h12h0.8l0.6-0.7l2.7-2.5
			C66.2,15.6,75.4,12.1,84.9,12.1 M84.9,10.1c-10,0-19.6,3.8-27.1,10.3L55,22.9H41v19h87v-19h-13.2l-2.8-2.5
			C104.5,13.9,94.9,10.1,84.9,10.1L84.9,10.1z"/>
	</g>
	<g>
		<path fill="#472C16" d="M86.2,54c13.3,0,25.1,8.1,29.9,20.4l0.5,1.5h1.4h18v102H34v-102h20.4h1.4l0.5-1.5
			C61.2,62.2,72.9,54,86.2,54 M86.2,52.5c-14.4,0-26.7,8.4-31.8,21.4H32v106h106v-106h-20C113,60.9,100.6,52.5,86.2,52.5L86.2,52.5z
			"/>
	</g>
	<path fill="#F3EA9B" d="M107.6,90.9c-1-14-10.2-19.6-21.4-19.6s-20.4,5.6-21.4,19.6H47v75h79v-75H107.6z"/>
	<path fill="#161110" d="M105.8,239.6c0,11.9-9.6,21.5-21.5,21.5c-11.9,0-21.5-9.6-21.5-21.5c0-10.7,7.8-19.6,18.1-21.2
		c1.1-0.2,2.3-0.3,3.4-0.3s2.3,0.1,3.4,0.3C97.9,220,105.8,228.8,105.8,239.6z"/>
	<circle fill="#161110" cx="84.2" cy="511.4" r="21.5"/>
	<rect x="58" y="292.9" fill="#F3EA9B" width="10" height="68"/>
	<rect x="102" y="288.9" fill="#F3EA9B" width="11" height="66"/>
	<rect x="71" y="231.9" fill="#F3EA9B" width="25" height="6"/>
	<rect x="71" y="454.9" fill="#F3EA9B" width="25" height="8"/>
	<path fill="#F3EA9B" d="M86,218.3v13.6h-5v-13.6c0-0.2,1.3-0.3,2.5-0.3S86,218.1,86,218.3z"/>
	<circle fill="#F7F6F0" cx="86.2" cy="128.6" r="32.8"/>
	<circle fill="#F7F6F0" stroke="#EEE49A" stroke-width="2.0208" stroke-miterlimit="10" cx="86.2" cy="128.6" r="16.1"/>
	<circle fill="#F7F6F0" cx="85.4" cy="80.6" r="7"/>
	<circle fill="#F3EA9B" cx="84.6" cy="483" r="21.5"/>
	<line fill="none" stroke="#EEE49A" stroke-width="2" stroke-miterlimit="10" x1="61" y1="292.9" x2="61" y2="224.9"/>
	<line fill="none" stroke="#EEE49A" stroke-width="2" stroke-miterlimit="10" x1="106" y1="292.9" x2="106" y2="224.9"/>
	<g>
		<path fill="#1A1A1A" d="M107.8,115.5c-1.7,1.5-3.4,2.9-5.2,4.3c-1.7,1.4-3.4,2.9-5.2,4.3c-3.5,2.8-7,5.6-10.4,8.5l-0.8,0.7
			l-0.9-0.7c-1.2-1-2.5-1.9-3.6-2.9c-1.2-1-2.3-2.1-3.4-3.2c-1.1-1.1-2.2-2.2-3.3-3.4c-1-1.2-2.1-2.4-3-3.6l0.2-0.2
			c1.4,0.8,2.7,1.6,4,2.5c1.3,0.9,2.6,1.8,3.8,2.7c1.2,0.9,2.5,1.9,3.7,2.9c1.2,1,2.3,2.1,3.4,3.2l-1.7-0.1
			c3.7-2.5,7.4-5.1,11.1-7.6c1.8-1.3,3.7-2.5,5.6-3.8c1.9-1.3,3.7-2.5,5.6-3.7L107.8,115.5z"/>
	</g>
	<g>
		<rect x="76" y="234.9" fill="none" stroke="#EEE49A" stroke-width="2" stroke-miterlimit="10" width="19" height="225"/>
		<line fill="none" stroke="#EEE49A" stroke-width="2" stroke-miterlimit="10" x1="91" y1="235.9" x2="91" y2="458.9"/>
		<line fill="none" stroke="#EEE49A" stroke-width="2" stroke-miterlimit="10" x1="89" y1="235.9" x2="89" y2="458.9"/>
		<line fill="none" stroke="#EEE49A" stroke-width="2" stroke-miterlimit="10" x1="84" y1="235.9" x2="84" y2="458.9"/>
		<line fill="none" stroke="#EEE49A" stroke-width="2" stroke-miterlimit="10" x1="80" y1="235.9" x2="80" y2="458.9"/>
		<line fill="none" stroke="#EEE49A" stroke-width="2" stroke-miterlimit="10" x1="78" y1="235.9" x2="78" y2="458.9"/>
	</g>
	<rect x="3" y="37.9" fill="#5F452B" width="161" height="13"/>
</g>
</svg>
