<?xml version="1.0" encoding="utf-8"?>
<!-- Generator: Adobe Illustrator 17.1.0, SVG Export Plug-In . SVG Version: 6.00 Build 0)  -->
<!DOCTYPE svg PUBLIC "-//W3C//DTD SVG 1.1//EN" "http://www.w3.org/Graphics/SVG/1.1/DTD/svg11.dtd">
<svg version="1.1" id="Layer_1" xmlns="http://www.w3.org/2000/svg" xmlns:xlink="http://www.w3.org/1999/xlink" x="0px" y="0px"
	 width="5385.9px" height="299.5px" viewBox="0 0 5385.9 299.5" enable-background="new 0 0 5385.9 299.5" xml:space="preserve">
<g>
	<path fill="#91C73D" d="M228.3,220.2h-86.9v-6.8l25.1-3.9l-28.3-74.1H65.7l-27,68.6l28.7,8.4v7.7H0v-7.7l24.5-8.4l79.2-199h15.8
		l84,204.5l24.8,2.9V220.2z M133.3,123.6l-31.6-78.2l-31.6,78.2H133.3z"/>
	<path fill="#91C73D" d="M331,5.2c26,0,44.8,4.2,56.5,12.6C399.2,26.1,405,38,405,53.5s-4.1,27.7-12.4,36.9
		c-8.3,9.1-20.3,14.5-36.2,16.3c20.8,3.7,36,9.8,45.4,18.5c9.4,8.7,14.2,21,14.2,36.9c0,19.8-8.2,34.4-24.5,44
		c-16.3,9.6-37.5,14.3-63.4,14.3h-84.4v-7.7l24.1-2.9V15.8l-28-2.9V5.2H331z M301.7,13.8V104h13.5c36.3,0,54.4-16.5,54.4-49.6
		c0-14.4-3.7-24.7-11.1-31.1c-7.4-6.3-19.4-9.5-35.9-9.5H301.7z M344.5,115.9c-8.2-1.7-16.1-2.6-23.8-2.6s-14.1,0.1-19,0.3v97.6
		c5.4,1.5,10.2,2.3,14.7,2.3c4.4,0,9.7-0.3,15.8-1c6.1-0.6,13.2-2.4,21.3-5.3c8-2.9,14.8-8.5,20.1-16.9c5.4-8.4,8-18.7,8-30.9
		C381.5,135.6,369.2,121.1,344.5,115.9z"/>
	<path fill="#91C73D" d="M564,2.9l66.3,2.9l1.9,58.6H622L611,22.2c-11.6-4.9-25.3-7.4-41.2-7.4c-26,0-47.5,8.5-64.6,25.6
		s-25.6,41.9-25.6,74.5c0,32.6,8.3,56.7,25,72.3c16.6,15.6,37.9,23.3,63.9,23.3c17.4,0,32.9-2.6,46.7-7.7l11.9-37l9,0.3l-1.9,48.3
		c-24.7,5.2-45.9,7.7-63.6,7.7s-32.3-1-43.8-2.9c-11.5-1.9-22.7-5.4-33.6-10.3c-10.9-4.9-20.2-11.3-27.9-19
		c-7.6-7.7-13.7-17.8-18.4-30.1c-4.6-12.3-6.9-27.4-6.9-45.2c0-17.8,3.5-34.3,10.5-49.4c7-15.1,16.5-27.1,28.5-35.9
		C502.8,11.7,531.2,2.9,564,2.9z"/>
	<path fill="#91C73D" d="M699,5.5l62.5-1.6c19.1,0,35.8,1.6,50.2,4.8c14.4,3.2,27.6,8.7,39.6,16.4c24.5,15.7,36.7,44.8,36.7,87.3
		c0,71.9-43.8,107.9-131.4,107.9h-97.2v-8.4l28-2.6V16.4l-28-3.5V4.5C672.4,5.2,685.6,5.5,699,5.5z M808.4,22.9
		c-9.4-3.6-16.3-5.7-20.6-6.1c-4.3-0.4-9.5-0.8-15.6-1.1c-6.1-0.3-13.3-0.5-21.6-0.5c-8.3,0-18.1,0.5-29.5,1.6V209l35.4,1
		c22.1-0.9,38.4-3.6,48.9-8.4c28.5-13.1,42.9-42.7,43.1-88.9c0-18-2-33.5-6.1-46.4c-4.1-12.9-8.4-22.4-13-28.7
		C824.9,31.5,817.9,26.5,808.4,22.9z"/>
	<path fill="#91C73D" d="M903,220.2v-7.7l28-2.9V15.8l-28-3.5V5.2h154.2l0.3,45.7h-8.4l-10.9-34.1l-74.1-1v86.6h65l10-23.8h6.4v59.9
		h-6.8l-9.7-24.5h-65v96l83.7-1l15.1-36.7h8.4l-3.9,48H903z"/>
	<path fill="#91C73D" d="M1153.4,119.5v90.2l28,2.9v7.7h-89.2v-7.7l28-2.9V16.1l-28-3.9V5.2h156.2l0.3,45.7h-8.4l-10.9-34.1l-76-1
		v92.1h67l10-23.8h6.4v59.9h-6.8l-9.7-24.5H1153.4z"/>
	<path fill="#91C73D" d="M1462.1,214.5c-20.6,5.2-44.2,7.7-70.8,7.7c-44.7,0-77.5-10.7-98.5-32.2c-7.7-7.7-13.9-17.8-18.5-30.1
		c-4.6-12.3-6.9-27.4-6.9-45.2c0-17.8,3.5-34.3,10.5-49.4c7-15.1,16.5-27.1,28.5-35.9c23.8-17.6,52.2-26.4,85-26.4l66.3,2.9
		l1.9,58.6h-10.3l-10.9-42.2c-11.6-4.9-25.3-7.4-41.2-7.4c-26,0-47.5,8.5-64.6,25.6s-25.6,41.9-25.6,74.5c0,32.6,8.3,56.7,25,72.3
		c16.6,15.6,37.9,23.3,63.9,23.3c12.7,0,24.3-1.3,34.8-3.9v-68.6l-26.7-2.9v-7.7h77.6v7.7l-19.3,2.9V214.5z"/>
	<path fill="#91C73D" d="M1729,220.2h-89.2v-7.7l28-2.9V114h-114.3v95.6l28,2.9v7.7h-89.2v-7.7l28-2.9V15.8l-28-2.9V5.2h89.2v7.7
		l-28,2.9v86.6h114.3V15.8l-28-2.9V5.2h89.2v7.7l-28,2.9v193.8l28,2.9V220.2z"/>
	<path fill="#91C73D" d="M1841.2,220.2H1752v-7.7l28-2.9V15.8l-28-2.9V5.2h89.2v7.7l-28,2.9v193.8l28,2.9V220.2z"/>
	<path fill="#91C73D" d="M1891,221.2V15.8l-28-2.9V5.2h89.2v7.7l-28,2.9v187.4c0,47-13,76.7-39,89.2c-10.1,4.7-21.7,7.1-34.8,7.1
		c-13.1,0-23.9-2.3-32.5-6.8c-8.6-4.5-12.9-12.1-12.9-22.9c0-4.5,2-8.4,6-11.8c4-3.3,8.2-5,12.7-5c4.5,0,8.2,0.4,10.9,1.3
		c-1.3,4.5-1.9,8.7-1.9,12.6c0,14.4,6.9,21.6,20.6,21.6C1878.4,288.5,1891,266.1,1891,221.2z"/>
	<path fill="#91C73D" d="M2105.3,5.2h65.4v7.4l-26.4,8.7l-83.4,79.2L2166.5,209l25.8,2.3v9h-93.4v-9l22.9-1.9l-86.6-92.1v92.4
		l28,2.9v7.7h-89.2v-7.7l28-2.9V15.8l-28-2.9V5.2h89.2v7.7l-28,2.9v92.1l93.1-87.9l-22.9-7.1V5.2z"/>
	<path fill="#91C73D" d="M2207.4,5.2h89.2v7.7l-28,2.9v194.2l81.1-1l15.1-36.7h8.4l-3.9,48h-162v-7.7l28-2.9V15.8l-28-2.9V5.2z"/>
	<path fill="#91C73D" d="M2655.6,5.2v7.4l-27.4,3.2l7.1,194.8l24.8,1.9v7.7h-81.8v-6.8l24.5-2.9l-8.4-166.2l-64.7,175.8h-17.1
		L2435.4,46l-6.1,158.4l27,8v7.7h-66v-7.7l26.7-9.3l6.4-187.4l-27.4-3.2V5.2h57l76.6,179.4l66-179.4H2655.6z"/>
	<path fill="#91C73D" d="M2890.6,112.1c0,32.2-9.8,58.9-29.3,80c-19.5,21.1-45.7,31.7-78.6,31.7s-59.1-10.6-78.7-31.7
		c-19.6-21.1-29.5-47.8-29.5-80c0-32.2,9.8-58.9,29.5-80c19.6-21.1,45.9-31.7,78.7-31.7s59,10.6,78.6,31.7
		C2880.8,53.2,2890.6,79.9,2890.6,112.1z M2783,213.8c45.5,0,68.3-33.9,68.3-101.8c0-32.6-5.2-57.7-15.6-75.3
		c-10.4-17.6-28.1-26.4-53-26.4c-24.9,0-42.6,8.7-53.1,26.2c-10.5,17.5-15.8,42.7-15.8,75.5C2713.8,179.9,2736.9,213.8,2783,213.8z"
		/>
	<path fill="#91C73D" d="M3076.4,58.9c0,12-2.6,22.3-7.7,30.9c-5.2,8.6-12.1,15.1-20.9,19.6c-16.5,8.2-36.3,12.2-59.2,12.2
		c-5.6,0-13.1-0.4-22.5-1.3v90.5l24.8,1.6v7.7h-82.1v-7.7l24.2-1.6V15.8l-28-3.5V4.5h60.2l38.3-1C3052,3.5,3076.4,22,3076.4,58.9z
		 M2980.1,111.7c19.5,0,34.6-4.7,45.1-14.2c10.5-9.4,15.8-22.2,15.8-38.2c0-16-3.8-27.7-11.3-35.1c-7.5-7.4-19.5-11.1-36.1-11.1
		c-7.3,0-16.5,0.4-27.7,1.3v96.6C2969.2,111.5,2973.9,111.7,2980.1,111.7z"/>
	<path fill="#91C73D" d="M3172.2,249.2c6.9-2.8,15.9-4.2,27.2-4.2c11.3,0,27.9,4.2,49.9,12.7c22,8.5,36.7,12.7,44,12.7
		c10.5,0,19-6.2,25.4-18.7l7.4,3.2c-9.4,26-26.7,39-51.8,39c-14.2,0-38.1-5.9-71.6-17.5c-33.6-11.7-57.9-17.5-72.9-17.5l1-4.8
		c23.6-6.2,46.5-16,68.6-29.3c-31.6-1.3-56.6-12.4-75-33.3c-18.5-20.9-27.7-47.4-27.7-79.5c0-32.1,9.8-58.7,29.3-79.9
		c19.5-21.1,45.8-31.7,78.9-31.7c33.1,0,59.3,10.6,78.7,31.9c19.4,21.3,29.1,47.6,29.1,78.9c0,31.3-8.5,57.4-25.6,78.1
		c-17.1,20.7-40.2,32.5-69.4,35.3c-20.2,11.8-35.4,19.9-45.7,24.1L3172.2,249.2z M3205,215.1c45.5,0,68.3-34.1,68.3-102.4
		c0-33.1-5.2-58.4-15.6-76c-10.4-17.6-28.1-26.4-53-26.4c-24.9,0-42.6,8.8-53.1,26.4c-10.5,17.6-15.8,42.9-15.8,76
		C3135.8,181,3158.9,215.1,3205,215.1z"/>
	<path fill="#91C73D" d="M3386.9,4.5l36.7-1c48.7,0,73.1,18.4,73.1,55.1c0,15.9-5.4,28.9-16.3,39.1c-10.8,10.2-24.8,15.3-42,15.3
		c-1.5,0-4.2-0.2-8.1-0.6v0.6c23,3.2,38.8,10.7,47.5,22.4c8.7,11.7,13,29.6,13,53.6c0,15,2.8,23.7,8.4,26.1
		c2.6,1.7,6.2,2.6,10.8,2.6c4.6,0,10.6-1.4,17.9-4.2v8c-11.4,4.1-21.8,6.1-31.2,6.1c-21,0-34-9-39-27c-1.3-4.7-2-11.4-2.1-20
		c-0.1-8.6-0.5-16.2-1.1-22.9c-0.6-6.7-2.1-13.3-4.5-20c-5.4-14.4-20.2-21.6-44.4-21.6h-18v94.7l24.8,2.3v7.1h-82.1v-6.8l24.2-2.6
		V15.1l-28-3.2V3.5c13.7,0.6,28.4,1,44.1,1H3386.9z M3387.5,106.9h16.1c38.4,0,57.6-16.1,57.6-48.3c0-15.9-3.8-27.4-11.3-34.6
		c-7.5-7.2-19.5-10.8-36.1-10.8c-6.4,0-15.2,0.4-26.4,1.3V106.9z"/>
	<path fill="#91C73D" d="M3661.8,15.8c-11.6-4.1-23.5-6.1-35.7-6.1c-12.2,0-23,3.5-32.2,10.5c-9.2,7-13.8,17.3-13.8,31.1
		c0,13.3,5.7,23.5,17.1,30.6c6.2,3.9,11.3,6.7,15.3,8.4c4,1.7,9.8,4,17.4,6.8c7.6,2.8,12.8,4.8,15.6,6c2.8,1.2,6.9,3,12.4,5.5
		c5.5,2.5,9.5,4.7,12.2,6.6c2.7,1.9,6,4.6,9.8,8c3.9,3.4,6.8,6.9,8.7,10.3c4.7,8.8,7.1,18.4,7.1,28.7c0,18.2-7.4,33.2-22.2,44.8
		c-14.8,11.6-34,17.4-57.6,17.4c-18,0-34.9-3-50.6-9c-7.7-2.8-14.1-6.7-19-11.6c-4.9-4.9-7.4-10.6-7.4-17.1
		c0-10.5,7.6-17.7,22.9-21.6c2.4,12.9,6.9,23.3,13.5,31.2c6.7,7.9,13.6,13.2,20.8,15.8c7.2,2.6,16,3.9,26.4,3.9
		c10.4,0,20.2-3.4,29.5-10.1c9.2-6.8,13.8-17.9,13.8-33.3c0-11.8-5.4-21.5-16.1-29c-8.6-5.8-19.2-11.3-31.7-16.4
		c-12.6-5.2-21-8.6-25.3-10.5c-4.3-1.8-9.8-4.7-16.6-8.7c-6.8-4-11.8-7.9-15-11.8c-8.4-10.1-12.6-21.7-12.6-34.8
		c0-20.2,7.2-35.4,21.6-45.7C3584.4,5.2,3604.3,0,3629.6,0c15.2,0,32.9,1.7,53.1,5.2v47.3h-10L3661.8,15.8z"/>
	<path fill="#91C73D" d="M3897.5,54.1h-9.7l-10.9-37l-57-0.6v193.2l29.9,2.9v7.7h-93.1v-7.7l29.9-2.9V16.4l-57,0.6l-10.9,37h-9.3
		V5.5l94-0.6l94,0.6V54.1z"/>
	<path fill="#91C73D" d="M3974.2,143c0,24,4.7,41.7,14,53c9.3,11.3,24.1,16.9,44.3,16.9c20.2,0,35.1-5.4,44.9-16.1
		c9.8-10.7,14.7-29,14.7-54.7V17.7l-23.8-3.2V5.2h63.8v10l-26.1,2.6v127.2c0,16.1-2.2,29-6.6,38.8c-4.4,9.8-9.3,17.2-14.7,22.4
		c-5.4,5.2-12.8,9.4-22.2,12.9c-9.4,3.4-20.5,5.2-33.2,5.2c-29.6,0-51.7-6-66.2-17.9s-21.7-30.9-21.7-56.8V15.8l-25.4-2.3V5.2h87.3
		v8.4l-29,2.3V143z"/>
	<path fill="#91C73D" d="M4143.9,5.2h86.9v6.8l-25.8,3.5l65.4,164.5l62.8-158.7l-28.3-8.4V5.2h67.3v7.7l-24.5,8.7l-79.9,200.6h-14.5
		l-84.7-206.7l-24.8-3.5V5.2z"/>
	<path fill="#91C73D" d="M4379,5.2h86.9v6.8l-25.8,2.9l58.9,165.2l46.4-117.2l-18-48l-24.8-2.9V5.2h86.9v6.8l-25.8,2.9l58.9,165.2
		L4684,21.3l-28.3-8.4V5.2h67.3v7.7l-24.5,8.7l-78.2,200.6h-14.5l-53.5-141l-55.7,141h-14.5l-78.2-207.4l-24.8-2.9V5.2z"/>
	<path fill="#91C73D" d="M4884.1,5.2h71.5v9.7l-25.4,7.1l-67.6,83.1l75.3,104.6l26.1,2.9v7.7h-93.7v-7.7l26.1-2.9l-54.1-78.2
		l-57.3,72.5l27.7,6.8v9.7h-72.5v-9.7l24.2-6.4l69.9-85.7l-78.9-103.4l-23.2-2.3V5.2h85v6.8l-22.5,2.9l59.2,78.2l57.3-71.2l-27-7.1
		V5.2z"/>
	<path fill="#91C73D" d="M5127.9,220.2h-89.2v-7.7l28-2.9v-81.8l-76-112.1l-24.5-3.5V5.2h86.9v6.8l-24.8,3.5l63.8,95.6l55.1-90.8
		l-24.2-7.4V5.2h65.4v7.7l-24.5,7.7l-64.1,104.6v84.4l28,2.9V220.2z"/>
	<path fill="#91C73D" d="M5207.2,52.5V5.2l178.7-0.6v10l-139.1,189.3l118.8,0.6l10.9-35.4h8.4v47l-181.3,0.6v-9L5344,17.4
		l-117.5-0.6l-10.9,35.7H5207.2z"/>
</g>
</svg>
