<?xml version="1.0" encoding="utf-8"?>
<!-- Generator: Adobe Illustrator 17.1.0, SVG Export Plug-In . SVG Version: 6.00 Build 0)  -->
<!DOCTYPE svg PUBLIC "-//W3C//DTD SVG 1.1//EN" "http://www.w3.org/Graphics/SVG/1.1/DTD/svg11.dtd">
<svg version="1.1" id="Layer_1" xmlns="http://www.w3.org/2000/svg" xmlns:xlink="http://www.w3.org/1999/xlink" x="0px" y="0px"
	 width="665px" height="526px" viewBox="0 0 665 526" enable-background="new 0 0 665 526" xml:space="preserve">
<g>
	<g>
		<polygon fill="#CCCCCC" points="397.7,442 404.1,515 259.3,515 265.7,442 		"/>
		<linearGradient id="SVGID_1_" gradientUnits="userSpaceOnUse" x1="331.6957" y1="515" x2="331.6957" y2="442">
			<stop  offset="0" style="stop-color:#FFFFFF"/>
			<stop  offset="1" style="stop-color:#000000"/>
		</linearGradient>
		<polygon opacity="0.36" fill="url(#SVGID_1_)" points="397.7,442 404.1,515 259.3,515 265.7,442 		"/>
		<path fill="#1A1A1A" d="M655.6,0H9C4.2,0,0,3.3,0,8.8v435.8c0,5.4,4.2,9.4,9,9.4h646.6c4.8,0,9.4-4,9.4-9.4V8.8
			C665,3.3,660.4,0,655.6,0z M27,22h611v342H27V22z"/>
		<rect x="232" y="522" fill="#CCCCCC" width="199" height="4"/>
		<path fill="#CCCCCC" d="M234.6,522c-1.7,0-2.7,0-2.7,0H234.6z"/>
		<path fill="#CCCCCC" d="M428.7,522H234.6c6.1,0,20.9-1,24.7-7h144.8C407.9,521,422.6,522,428.7,522z"/>
		<path fill="#CCCCCC" d="M431.4,522c0,0-1,0-2.7,0H431.4z"/>
		<rect x="232" y="522" fill="#E6E6E6" width="199" height="4"/>
		<path opacity="0.22" fill="#FFFFFF" d="M665,8.8v435.8c0,5.4-4.6,9.4-9.4,9.4H99.8l55.4-54.7L191,364h447V22H537.8l22.8-22h95
			C660.4,0,665,3.3,665,8.8z"/>
		<path fill="#E6E6E6" d="M665,401v43.6c0,5.4-4.6,9.4-9.4,9.4H9c-4.8,0-9-4-9-9.4V401H665z"/>
	</g>
</g>
</svg>
