<?xml version="1.0" encoding="utf-8"?>
<!-- Generator: Adobe Illustrator 17.1.0, SVG Export Plug-In . SVG Version: 6.00 Build 0)  -->
<!DOCTYPE svg PUBLIC "-//W3C//DTD SVG 1.1//EN" "http://www.w3.org/Graphics/SVG/1.1/DTD/svg11.dtd">
<svg version="1.1" id="Layer_1" xmlns="http://www.w3.org/2000/svg" xmlns:xlink="http://www.w3.org/1999/xlink" x="0px" y="0px"
	 width="752px" height="427px" viewBox="0 0 752 427" enable-background="new 0 0 752 427" xml:space="preserve">
<rect fill="#1A1A1A" width="752" height="427"/>
<g>
	<rect y="8" fill="none" width="752" height="333"/>
	<text transform="matrix(1 0 0 1 47.1027 97.0325)"><tspan x="0" y="0" fill="#FFFFFF" font-family="'Helvetica-Bold'" font-size="65.0663">5 Avenue-</tspan><tspan x="0" y="56.7" fill="#FFFFFF" font-family="'Helvetica-Bold'" font-size="65.0663">Bryant Park Station</tspan></text>
	<line fill="#FFFFFF" stroke="#FFFFFF" stroke-width="2" stroke-miterlimit="10" x1="5" y1="35" x2="752" y2="35"/>
	<g>
		<circle fill="#FF6B00" cx="100.5" cy="234.6" r="54.8"/>
		<g>
			<text transform="matrix(1 0 0 1 77.0333 256.7786)" fill="#FFFFFF" font-family="'Helvetica-Bold'" font-size="65.0663">B</text>
		</g>
	</g>
	<g>
		<circle fill="#FF6B00" cx="230.1" cy="234.6" r="54.8"/>
		<g>
			<text transform="matrix(1 0 0 1 208.2716 256.7786)" fill="#FFFFFF" font-family="'Helvetica-Bold'" font-size="65.0663">D</text>
		</g>
	</g>
	<g>
		<circle fill="#FF6B00" cx="489.3" cy="234.6" r="54.8"/>
		<g>
			<text transform="matrix(1 0 0 1 462.2277 256.7786)" fill="#FFFFFF" font-family="'Helvetica-Bold'" font-size="65.0663">M</text>
		</g>
	</g>
	<g>
		<circle fill="#FF6B00" cx="359.7" cy="234.6" r="54.8"/>
		<g>
			<text transform="matrix(1 0 0 1 339.8673 256.7786)" fill="#FFFFFF" font-family="'Helvetica-Bold'" font-size="65.0663">F</text>
		</g>
	</g>
	<g>
		<circle fill="#873299" cx="619" cy="234.6" r="54.8"/>
		<g>
			<text transform="matrix(1 0 0 1 600.4493 256.7786)" fill="#FFFFFF" font-family="'Helvetica-Bold'" font-size="65.0663">7</text>
		</g>
	</g>
</g>
</svg>
