<?xml version="1.0" encoding="utf-8"?>
<!-- Generator: Adobe Illustrator 17.1.0, SVG Export Plug-In . SVG Version: 6.00 Build 0)  -->
<!DOCTYPE svg PUBLIC "-//W3C//DTD SVG 1.1//EN" "http://www.w3.org/Graphics/SVG/1.1/DTD/svg11.dtd">
<svg version="1.1" id="Layer_1" xmlns="http://www.w3.org/2000/svg" xmlns:xlink="http://www.w3.org/1999/xlink" x="0px" y="0px"
	 width="321.3px" height="441.5px" viewBox="0 0 321.3 441.5" enable-background="new 0 0 321.3 441.5" xml:space="preserve">
<g>
	<path fill="#CCCCCC" d="M159.6,0c-31.8,0-57.5,25.7-57.5,57.5c0,31.8,25.7,57.5,57.5,57.5c31.8,0,57.5-25.7,57.5-57.5
		C217.1,25.7,191.3,0,159.6,0z M159.6,103.1c-25.2,0-45.6-20.4-45.6-45.6s20.4-45.6,45.6-45.6s45.6,20.4,45.6,45.6
		S184.8,103.1,159.6,103.1z"/>
	<rect x="144.2" y="84.7" fill="#B3B3B3" width="33" height="41"/>
	<rect x="136.2" y="43.7" fill="#CCCCCC" width="46" height="46"/>
	<line fill="none" stroke="#808080" stroke-width="3" stroke-miterlimit="10" x1="160.7" y1="43.7" x2="160.7" y2="89.7"/>
	<line fill="none" stroke="#F2F2F2" stroke-width="3" stroke-miterlimit="10" x1="160.7" y1="43.7" x2="160.7" y2="89.7"/>
	<line fill="none" stroke="#F2F2F2" stroke-width="3" stroke-miterlimit="10" x1="176.7" y1="43.7" x2="176.7" y2="89.7"/>
	<line fill="none" stroke="#F2F2F2" stroke-width="3" stroke-miterlimit="10" x1="140.7" y1="43.7" x2="140.7" y2="89.7"/>
	<line fill="none" stroke="#F2F2F2" stroke-width="3" stroke-miterlimit="10" x1="181.7" y1="43.7" x2="181.7" y2="89.7"/>
	<line fill="none" stroke="#808080" stroke-width="3" stroke-miterlimit="10" x1="173.7" y1="43.7" x2="173.7" y2="89.7"/>
	<line fill="none" stroke="#808080" stroke-width="3" stroke-miterlimit="10" x1="145.7" y1="43.7" x2="145.7" y2="89.7"/>
	<line fill="none" stroke="#808080" stroke-width="3" stroke-miterlimit="10" x1="181.7" y1="43.7" x2="181.7" y2="89.7"/>
	<line fill="none" stroke="#808080" stroke-width="3" stroke-miterlimit="10" x1="140.7" y1="43.7" x2="140.7" y2="89.7"/>
	
		<rect x="252" y="119.2" transform="matrix(0.8146 0.58 -0.58 0.8146 128.0326 -126.3694)" fill="#B3B3B3" width="19.4" height="35.9"/>
	
		<rect x="263.9" y="97.1" transform="matrix(0.8146 0.58 -0.58 0.8146 118.1292 -139.5945)" fill="#CCCCCC" width="27.1" height="35.9"/>
	
		<rect x="54.8" y="120.2" transform="matrix(-0.8146 0.58 -0.58 -0.8146 197.1116 213.1637)" fill="#B3B3B3" width="19.4" height="35.9"/>
	
		<rect x="35.2" y="98" transform="matrix(-0.8146 0.58 -0.58 -0.8146 155.7325 182.1776)" fill="#CCCCCC" width="27.1" height="35.9"/>
	<circle fill="#B3B3B3" cx="160.7" cy="280.8" r="160.7"/>
	<circle fill="#CCCCCC" stroke="#999999" stroke-width="0.9691" stroke-miterlimit="10" cx="160.7" cy="280.8" r="151.6"/>
	<circle fill="#B3B3B3" cx="160.7" cy="280.8" r="127.6"/>
	<circle fill="#F2F2F2" stroke="#4D4D4D" stroke-width="0.9691" stroke-miterlimit="10" cx="160.7" cy="280.8" r="120.3"/>
	<circle fill="#CF0A2C" cx="160.7" cy="280.8" r="13"/>
	<circle fill="#CCCCCC" cx="160.7" cy="280.8" r="8.9"/>
	<circle fill="none" stroke="#808080" stroke-width="0.9691" stroke-miterlimit="10" cx="160.6" cy="231.9" r="29.6"/>
	<polygon fill="#CF0A2C" points="160.4,165.4 162.4,218.6 164.5,271.7 160.4,271.7 156.3,271.7 158.4,218.6 	"/>
	<line fill="none" stroke="#4D4D4D" stroke-width="3" stroke-miterlimit="10" x1="160.7" y1="184.7" x2="160.7" y2="158.7"/>
	<line fill="none" stroke="#4D4D4D" stroke-width="3" stroke-miterlimit="10" x1="160.7" y1="400.7" x2="160.7" y2="374.7"/>
	<line fill="none" stroke="#4D4D4D" stroke-width="3" stroke-miterlimit="10" x1="283.2" y1="281.2" x2="257.2" y2="281.2"/>
	<line fill="none" stroke="#4D4D4D" stroke-width="3" stroke-miterlimit="10" x1="64.2" y1="276.2" x2="39.2" y2="276.2"/>
	<line fill="none" stroke="#4D4D4D" stroke-width="0.9691" stroke-miterlimit="10" x1="77.1" y1="328.4" x2="56" y2="340.6"/>
	<line fill="none" stroke="#4D4D4D" stroke-width="0.9691" stroke-miterlimit="10" x1="265.1" y1="220.6" x2="245.1" y2="232.2"/>
	<line fill="none" stroke="#4D4D4D" stroke-width="0.9691" stroke-miterlimit="10" x1="58" y1="217.7" x2="78.1" y2="229.3"/>
	<line fill="none" stroke="#4D4D4D" stroke-width="0.9691" stroke-miterlimit="10" x1="113.9" y1="197.1" x2="101.8" y2="176.1"/>
	<polyline fill="none" stroke="#4D4D4D" stroke-width="0.9691" stroke-miterlimit="10" points="209.8,197 209.8,197 209.8,197 
		221.4,176.8 	"/>
	<polyline fill="none" stroke="#4D4D4D" stroke-width="0.9691" stroke-miterlimit="10" points="226.2,382.1 214.7,362 214.6,361.9 
		214.6,361.9 	"/>
	<polyline fill="none" stroke="#4D4D4D" stroke-width="0.9691" stroke-miterlimit="10" points="100.3,385 100.3,385 100.3,385 
		111.9,364.8 	"/>
	<line fill="none" stroke="#4D4D4D" stroke-width="0.9691" stroke-miterlimit="10" x1="265.4" y1="340" x2="244.3" y2="327.9"/>
	<circle fill="#333333" cx="160.7" cy="280.8" r="2.1"/>
</g>
</svg>
