<?xml version="1.0" encoding="utf-8"?>
<!-- Generator: Adobe Illustrator 17.1.0, SVG Export Plug-In . SVG Version: 6.00 Build 0)  -->
<!DOCTYPE svg PUBLIC "-//W3C//DTD SVG 1.1//EN" "http://www.w3.org/Graphics/SVG/1.1/DTD/svg11.dtd">
<svg version="1.1" id="Layer_1" xmlns="http://www.w3.org/2000/svg" xmlns:xlink="http://www.w3.org/1999/xlink" x="0px" y="0px"
	 width="519.1px" height="105px" viewBox="0 0 519.1 105" enable-background="new 0 0 519.1 105" xml:space="preserve">
<g>
	<rect x="12.6" y="1" fill="#999999" width="493" height="99"/>
	<line fill="#333333" stroke="#808080" stroke-miterlimit="10" x1="12.6" y1="65.5" x2="505.6" y2="65.5"/>
	<line fill="#333333" stroke="#808080" stroke-miterlimit="10" x1="17.6" y1="18.5" x2="508.6" y2="18.5"/>
	<line fill="#333333" stroke="#808080" stroke-miterlimit="10" x1="12.6" y1="69.5" x2="505.6" y2="69.5"/>
	<line fill="#333333" stroke="#808080" stroke-miterlimit="10" x1="12.6" y1="95.5" x2="505.6" y2="95.5"/>
	<rect x="12.6" y="1" fill="#A7A8A7" width="493" height="18"/>
	<rect x="235.6" y="16" fill="#A7A8A7" width="49" height="84"/>
	<rect x="409.6" y="18" fill="#A7A8A7" width="48" height="82"/>
	<rect x="62.6" y="18" fill="#A7A8A7" width="49" height="82"/>
	<rect x="147.6" y="23" fill="#A7A8A7" width="52" height="39"/>
	<rect x="320.6" y="23" fill="#A7A8A7" width="51" height="39"/>
	<g>
		<path fill="#333333" d="M82.6,59c0,1.6-1.3,3-3,3h-6c-1.6,0-3-1.3-3-3V34c0-1.6,1.3-3,3-3h6c1.6,0,3,1.3,3,3V59z"/>
		<path fill="none" stroke="#E6E6E6" stroke-miterlimit="10" d="M82.1,59.5c0,1.6-1.3,3-3,3h-6c-1.6,0-3-1.3-3-3v-25
			c0-1.6,1.3-3,3-3h6c1.6,0,3,1.3,3,3V59.5z"/>
	</g>
	<g>
		<path fill="#333333" d="M104.6,59c0,1.6-1.3,3-3,3h-6c-1.6,0-3-1.3-3-3V34c0-1.6,1.3-3,3-3h6c1.6,0,3,1.3,3,3V59z"/>
		<path fill="none" stroke="#E6E6E6" stroke-miterlimit="10" d="M104.1,59.5c0,1.6-1.3,3-3,3h-6c-1.6,0-3-1.3-3-3v-25
			c0-1.6,1.3-3,3-3h6c1.6,0,3,1.3,3,3V59.5z"/>
	</g>
	<g>
		<path fill="#333333" d="M255.6,59c0,1.6-1.3,3-3,3h-6c-1.6,0-3-1.3-3-3V34c0-1.6,1.3-3,3-3h6c1.6,0,3,1.3,3,3V59z"/>
		<path fill="none" stroke="#E6E6E6" stroke-miterlimit="10" d="M255.1,59.5c0,1.6-1.3,3-3,3h-6c-1.6,0-3-1.3-3-3v-25
			c0-1.6,1.3-3,3-3h6c1.6,0,3,1.3,3,3V59.5z"/>
	</g>
	<g>
		<path fill="#333333" d="M277.6,59c0,1.6-1.3,3-3,3h-6c-1.6,0-3-1.3-3-3V34c0-1.6,1.3-3,3-3h6c1.6,0,3,1.3,3,3V59z"/>
		<path fill="none" stroke="#E6E6E6" stroke-miterlimit="10" d="M278.1,59.5c0,1.6-1.3,3-3,3h-6c-1.6,0-3-1.3-3-3v-25
			c0-1.6,1.3-3,3-3h6c1.6,0,3,1.3,3,3V59.5z"/>
	</g>
	<g>
		<path fill="#333333" d="M428.6,59c0,1.6-1.3,3-3,3h-6c-1.6,0-3-1.3-3-3V34c0-1.6,1.3-3,3-3h6c1.6,0,3,1.3,3,3V59z"/>
		<path fill="none" stroke="#E6E6E6" stroke-miterlimit="10" d="M428.1,59.5c0,1.6-1.3,3-3,3h-6c-1.6,0-3-1.3-3-3v-25
			c0-1.6,1.3-3,3-3h6c1.6,0,3,1.3,3,3V59.5z"/>
	</g>
	<g>
		<path fill="#333333" d="M450.6,59c0,1.6-1.3,3-3,3h-6c-1.6,0-3-1.3-3-3V34c0-1.6,1.3-3,3-3h6c1.6,0,3,1.3,3,3V59z"/>
		<path fill="none" stroke="#E6E6E6" stroke-miterlimit="10" d="M451.1,59.5c0,1.6-1.3,3-3,3h-6c-1.6,0-3-1.3-3-3v-25
			c0-1.6,1.3-3,3-3h6c1.6,0,3,1.3,3,3V59.5z"/>
	</g>
	<g>
		<path fill="#333333" d="M197.6,58c0,1.6-1.3,3-3,3h-43c-1.6,0-3-1.3-3-3V39c0-1.6,1.3-3,3-3h43c1.6,0,3,1.3,3,3V58z"/>
		<path fill="none" stroke="#E6E6E6" stroke-miterlimit="10" d="M197.1,57.5c0,1.6-1.3,3-3,3h-43c-1.6,0-3-1.3-3-3v-19
			c0-1.6,1.3-3,3-3h43c1.6,0,3,1.3,3,3V57.5z"/>
	</g>
	<g>
		<path fill="#333333" d="M197.6,31c0,1.6-1.3,3-3,3h-43c-1.6,0-3-1.3-3-3v-3c0-1.6,1.3-3,3-3h43c1.6,0,3,1.3,3,3V31z"/>
		<path fill="none" stroke="#E6E6E6" stroke-miterlimit="10" d="M197.1,31.5c0,1.6-1.3,3-3,3h-43c-1.6,0-3-1.3-3-3v-3
			c0-1.6,1.3-3,3-3h43c1.6,0,3,1.3,3,3V31.5z"/>
	</g>
	<g>
		<path fill="#333333" d="M369.6,58c0,1.6-1.3,3-3,3h-43c-1.6,0-3-1.3-3-3V39c0-1.6,1.3-3,3-3h43c1.6,0,3,1.3,3,3V58z"/>
		<path fill="none" stroke="#E6E6E6" stroke-miterlimit="10" d="M370.1,57.5c0,1.6-1.3,3-3,3h-43c-1.6,0-3-1.3-3-3v-19
			c0-1.6,1.3-3,3-3h43c1.6,0,3,1.3,3,3V57.5z"/>
	</g>
	<g>
		<path fill="#333333" d="M369.6,31c0,1.6-1.3,3-3,3h-43c-1.6,0-3-1.3-3-3v-3c0-1.6,1.3-3,3-3h43c1.6,0,3,1.3,3,3V31z"/>
		<path fill="none" stroke="#E6E6E6" stroke-miterlimit="10" d="M370.1,31.5c0,1.6-1.3,3-3,3h-43c-1.6,0-3-1.3-3-3v-3
			c0-1.6,1.3-3,3-3h43c1.6,0,3,1.3,3,3V31.5z"/>
	</g>
	<line fill="#333333" stroke="#808080" stroke-miterlimit="10" x1="87.1" y1="25" x2="87.1" y2="96"/>
	<line fill="#333333" stroke="#808080" stroke-miterlimit="10" x1="260.1" y1="25" x2="260.1" y2="96"/>
	<line fill="#333333" stroke="#808080" stroke-miterlimit="10" x1="433.1" y1="25" x2="433.1" y2="96"/>
	<path fill="#A7A8A7" d="M8.6,100h4V0.5c0,0-1.5,0.1-4.4,5.9C6.8,14,8.6,100,8.6,100z"/>
	<polyline fill="none" stroke="#808080" stroke-miterlimit="10" points="174.1,0 174.1,7.5 58.1,7.5 58.1,0 	"/>
	<polyline fill="none" stroke="#808080" stroke-miterlimit="10" points="462.1,0 462.1,7.5 346.1,7.5 346.1,0 	"/>
	<g>
		<path fill="none" stroke="#808080" stroke-miterlimit="10" d="M110.1,93.7c0,1.5-1.2,2.8-2.8,2.8H66.9c-1.5,0-2.8-1.2-2.8-2.8
			V27.3c0-1.5,1.2-2.8,2.8-2.8h40.4c1.5,0,2.8,1.2,2.8,2.8V93.7z"/>
	</g>
	<g>
		<path fill="none" stroke="#808080" stroke-miterlimit="10" d="M283.1,93.7c0,1.5-1.3,2.8-2.8,2.8h-40.4c-1.5,0-2.8-1.3-2.8-2.8
			V27.3c0-1.5,1.3-2.8,2.8-2.8h40.4c1.5,0,2.8,1.3,2.8,2.8V93.7z"/>
	</g>
	<g>
		<path fill="none" stroke="#808080" stroke-miterlimit="10" d="M456.1,93.7c0,1.5-1.3,2.8-2.8,2.8h-40.4c-1.5,0-2.8-1.3-2.8-2.8
			V27.3c0-1.5,1.3-2.8,2.8-2.8h40.4c1.5,0,2.8,1.3,2.8,2.8V93.7z"/>
	</g>
	<circle fill="none" stroke="#808080" stroke-width="1.3835" stroke-miterlimit="10" cx="140.1" cy="27.1" r="3.5"/>
	<circle fill="none" stroke="#808080" stroke-width="1.3835" stroke-miterlimit="10" cx="313.9" cy="27.1" r="3.5"/>
	<rect x="115.6" y="32" fill="#1A1A1A" width="16" height="5"/>
	<rect x="0.6" y="96" fill="#808080" width="12" height="4"/>
	<line fill="none" stroke="#808080" stroke-linecap="round" stroke-miterlimit="10" x1="1.1" y1="100" x2="1.1" y2="55"/>
	<line fill="none" stroke="#808080" stroke-linecap="round" stroke-miterlimit="10" x1="14.1" y1="100" x2="14.1" y2="55"/>
	
		<line fill="none" stroke="#808080" stroke-width="1.4922" stroke-linecap="round" stroke-miterlimit="10" x1="13.8" y1="78.1" x2="1.1" y2="69.9"/>
	<polyline fill="none" stroke="#808080" stroke-linecap="round" stroke-miterlimit="10" points="12.6,62.5 10.8,62.5 0.5,82.3 	"/>
	<polyline fill="none" stroke="#808080" stroke-linecap="round" stroke-miterlimit="10" points="0.6,89.5 3.3,89.5 13.5,82.4 	"/>
	<path fill="#A7A8A7" d="M511,100h-5.4V0.5c0,0,2.2,0.1,5.1,5.9C512,14,511,100,511,100z"/>
	<g>
		<rect x="505.6" y="96" fill="#808080" width="13" height="4"/>
		<line fill="none" stroke="#808080" stroke-linecap="round" stroke-miterlimit="10" x1="518.1" y1="100" x2="518.1" y2="55"/>
		<line fill="none" stroke="#808080" stroke-linecap="round" stroke-miterlimit="10" x1="505.1" y1="100" x2="505.1" y2="55"/>
		
			<line fill="none" stroke="#808080" stroke-width="1.3835" stroke-linecap="round" stroke-miterlimit="10" x1="505.5" y1="78.1" x2="518.2" y2="69.9"/>
		<polyline fill="none" stroke="#808080" stroke-linecap="round" stroke-miterlimit="10" points="505.6,62.5 508.5,62.5 518.2,82.3 
					"/>
		<polyline fill="none" stroke="#808080" stroke-linecap="round" stroke-miterlimit="10" points="518.6,89.5 515.9,89.5 505.7,82.4 
					"/>
	</g>
	<rect x="143.6" y="1" fill="#CCCCCC" width="24" height="3"/>
	<rect x="64.6" y="1" fill="#CCCCCC" width="23" height="3"/>
	<rect x="432.6" y="1" fill="#CCCCCC" width="25" height="3"/>
	<rect x="351.6" y="1" fill="#CCCCCC" width="25" height="3"/>
	<line fill="#333333" stroke="#808080" stroke-miterlimit="10" x1="12.6" y1="18.5" x2="505.6" y2="18.5"/>
	<g>
		<path fill="#CCCCCC" d="M119.8,33.5c0-0.1,0-0.1-0.1-0.2c-0.1-0.1-0.2-0.2-0.4-0.2c-0.2,0-0.4,0.1-0.5,0.4
			c-0.1,0.2-0.1,0.4-0.1,0.7c0.1-0.1,0.2-0.2,0.3-0.2s0.3-0.1,0.4-0.1c0.3,0,0.6,0.1,0.9,0.4c0.2,0.2,0.3,0.5,0.3,0.9
			c0,0.4-0.1,0.7-0.3,1c-0.2,0.3-0.6,0.4-1,0.4c-0.5,0-0.9-0.2-1.1-0.6c-0.2-0.3-0.3-0.7-0.3-1.2c0-0.3,0-0.5,0-0.7
			c0-0.3,0.1-0.6,0.3-0.8c0.1-0.2,0.3-0.3,0.4-0.5c0.2-0.1,0.4-0.2,0.6-0.2c0.4,0,0.7,0.1,0.9,0.3c0.2,0.2,0.3,0.4,0.4,0.7H119.8z
			 M118.8,35.7c0.1,0.1,0.3,0.2,0.4,0.2c0.2,0,0.3-0.1,0.4-0.2c0.1-0.1,0.1-0.3,0.1-0.5c0-0.2-0.1-0.4-0.2-0.5
			c-0.1-0.1-0.2-0.2-0.4-0.2c-0.1,0-0.2,0-0.3,0.1c-0.2,0.1-0.2,0.3-0.2,0.6C118.7,35.4,118.7,35.6,118.8,35.7z"/>
		<path fill="#CCCCCC" d="M123.4,33c0.2,0.4,0.3,0.8,0.3,1.5s-0.1,1.1-0.3,1.5c-0.2,0.3-0.6,0.5-1,0.5s-0.8-0.2-1-0.5
			c-0.2-0.3-0.3-0.8-0.3-1.5s0.1-1.1,0.3-1.5c0.2-0.4,0.6-0.5,1-0.5S123.2,32.6,123.4,33z M121.9,35.5c0.1,0.2,0.2,0.4,0.5,0.4
			s0.4-0.1,0.4-0.4c0.1-0.2,0.1-0.6,0.1-1c0-0.5,0-0.8-0.1-1c-0.1-0.2-0.2-0.3-0.4-0.3s-0.4,0.1-0.5,0.3c-0.1,0.2-0.1,0.6-0.1,1
			C121.8,34.9,121.8,35.3,121.9,35.5z"/>
		<path fill="#CCCCCC" d="M124.8,35.2c0,0.2,0,0.3,0.1,0.4c0.1,0.2,0.3,0.3,0.5,0.3c0.2,0,0.3-0.1,0.4-0.2c0.1-0.1,0.2-0.3,0.2-0.4
			c0-0.3-0.1-0.4-0.3-0.5c-0.1,0-0.3-0.1-0.6-0.1v-0.6c0.2,0,0.4,0,0.5-0.1c0.2-0.1,0.3-0.2,0.3-0.5c0-0.1,0-0.3-0.1-0.4
			c-0.1-0.1-0.2-0.1-0.4-0.1c-0.2,0-0.3,0.1-0.4,0.2s-0.1,0.3-0.1,0.5h-0.7c0-0.2,0-0.4,0.1-0.6c0.1-0.2,0.2-0.3,0.3-0.4
			c0.1-0.1,0.2-0.2,0.4-0.2c0.1,0,0.3-0.1,0.5-0.1c0.4,0,0.7,0.1,0.9,0.3c0.2,0.2,0.3,0.5,0.3,0.8c0,0.2-0.1,0.4-0.2,0.6
			c-0.1,0.1-0.2,0.2-0.3,0.2c0.1,0,0.2,0.1,0.3,0.2c0.2,0.2,0.3,0.4,0.3,0.7c0,0.3-0.1,0.6-0.3,0.9c-0.2,0.3-0.6,0.4-1,0.4
			c-0.6,0-0.9-0.2-1.2-0.5c-0.1-0.2-0.2-0.4-0.2-0.8H124.8z"/>
		<path fill="#CCCCCC" d="M127.9,35.4c0,0.2,0.1,0.3,0.2,0.4s0.2,0.1,0.4,0.1c0.2,0,0.3-0.1,0.4-0.2c0.1-0.1,0.1-0.3,0.1-0.5
			c0-0.2,0-0.4-0.1-0.5c-0.1-0.1-0.2-0.2-0.4-0.2c-0.1,0-0.2,0-0.2,0c-0.1,0-0.2,0.1-0.3,0.2l-0.7,0l0.3-2.2h2.2v0.7h-1.6l-0.1,0.9
			c0.1-0.1,0.2-0.1,0.3-0.2c0.1,0,0.2-0.1,0.4-0.1c0.3,0,0.6,0.1,0.8,0.3c0.2,0.2,0.4,0.5,0.4,1c0,0.4-0.1,0.7-0.3,1s-0.6,0.4-1,0.4
			c-0.4,0-0.7-0.1-0.9-0.3c-0.2-0.2-0.4-0.5-0.4-0.9H127.9z"/>
	</g>
	<rect x="8.6" y="100" fill="#333333" width="503" height="5"/>
</g>
</svg>
